<?xml version="1.0" encoding="UTF-8" standalone="no"?>
<!-- Created with Inkscape (http://www.inkscape.org/) -->

<svg
   width="20cm"
   height="5.0749998cm"
   viewBox="0 0 200 50.749998"
   version="1.1"
   id="svg1"
   inkscape:version="1.3.2 (091e20ef0f, 2023-11-25, custom)"
   sodipodi:docname="sine_vs_pwm.svg"
   xmlns:inkscape="http://www.inkscape.org/namespaces/inkscape"
   xmlns:sodipodi="http://sodipodi.sourceforge.net/DTD/sodipodi-0.dtd"
   xmlns="http://www.w3.org/2000/svg"
   xmlns:svg="http://www.w3.org/2000/svg">
  <sodipodi:namedview
     id="namedview1"
     pagecolor="#505050"
     bordercolor="#eeeeee"
     borderopacity="1"
     inkscape:showpageshadow="0"
     inkscape:pageopacity="0"
     inkscape:pagecheckerboard="false"
     inkscape:deskcolor="#505050"
     inkscape:document-units="cm"
     inkscape:zoom="0.80969847"
     inkscape:cx="187.7242"
     inkscape:cy="226.62758"
     inkscape:window-width="1556"
     inkscape:window-height="837"
     inkscape:window-x="0"
     inkscape:window-y="0"
     inkscape:window-maximized="1"
     inkscape:current-layer="layer1"
     showgrid="true">
    <inkscape:grid
       id="grid2"
       units="cm"
       originx="0"
       originy="-87.124999"
       spacingx="0.99999999"
       spacingy="0.99999999"
       empcolor="#0099e5"
       empopacity="0.30196078"
       color="#0099e5"
       opacity="0.14901961"
       empspacing="5"
       dotted="false"
       gridanglex="30"
       gridanglez="30"
       visible="true" />
  </sodipodi:namedview>
  <defs
     id="defs1" />
  <g
     inkscape:label="Layer 1"
     inkscape:groupmode="layer"
     id="layer1"
     transform="translate(0,-87.125)">
    <path
       style="fill:none;fill-opacity:1;stroke:#e7ad52;stroke-width:0.750001;stroke-dasharray:none;stroke-opacity:1"
       d="m 0,87.5 c 0.0667334,0 0.133467,0 0.2002,0 0.066734,0 0.133467,0 0.2002,0 0.066734,0 0.133467,0 0.200201,0 0.066733,0 0.133466,0 0.2002,0 0.066733,0 0.133467,0 0.200199,0 0.06673,0 0.13347,0 0.2002,0 0.06673,0 0.13347,0 0.2002,0 0.06673,0 0.13347,0 0.2002,0 0.06674,0 0.13347,0 0.2002,0 0.06674,0 0.13347,0 0.2002,0 0.06674,0 0.13347,0 0.2002,0 0.06674,0 0.13347,0 0.2002,0 0.06674,0 0.13347,0 0.2002,0 0.06674,0 0.13347,0 0.2002,0 0.06674,0 0.13347,0 0.2002,0 0.06674,0 0.13347,0 0.2002,0 0.06674,0 0.13347,0 0.2002,0 0.06674,0 0.13347,0 0.2002,0 0.06674,0 0.13347,0 0.2002,0 0.06674,0 0.13347,0 0.2002,0 0.06674,0 0.13347,0 0.2002,0 0.06674,0 0.13347,0 0.2002,0 0.06674,0 0.13347,0 0.2002,0 0.06674,0 0.13347,0 0.2002,0 0.06674,0 0.13347,0 0.20021,0 0.06673,0 0.13346,0 0.2002,0 0.06673,0 0.13346,0 0.2002,0 0.06673,0 0.13346,0 0.2002,0 0.06673,0 0.13346,0 0.2002,0 0.06673,0 0.13346,0 0.2002,0 0.06673,0 0.13346,0 0.2002,0 0.06673,0 0.13346,0 0.2002,0 0.06673,0 0.13346,0 0.2002,0 0.06673,0 0.13346,0 0.2002,0 0.06673,0 0.13346,0 0.2002,0 0.06673,0 0.13346,0 0.2002,0 0.06673,0 0.13346,0 0.2002,0 0.06673,0 0.13346,0 0.2002,0 0.06673,0 0.13346,0 0.2002,0 0.06673,0 0.13346,0 0.2002,0 0.06673,0 0.13346,0 0.2002,0 0.06673,0 0.13347,0 0.2002,0 0.06673,0 0.13347,0 0.2002,0 0.06673,0 0.13347,0 0.2002,0 0.06673,0 0.13347,0 0.2002,0 0.06673,0 0.13347,0 0.2002,0 0.06673,0 0.13347,0 0.2002,0 0.06673,0 0.13347,0 0.2002,0 0.06673,0 0.13347,0 0.2002,0 0.06673,0 0.13347,0 0.20019,0 0.0667,0 0.1335,0 0.2002,0 0.0667,0 0.1335,0 0.2002,0 0.0667,0 0.1335,0 0.2002,0 0.0667,0 0.1335,0 0.2002,0 0.0667,0 0.1335,0 0.2002,0 0.0667,0 0.1335,0 0.2002,0 0.0667,0 0.1335,0 0.2002,0 0.0667,0 0.1335,0 0.2002,0 0.0667,0 0.1335,0 0.2002,0 0.0667,0 0.1335,0 0.2002,0 0.0667,0 0.1335,0 0.2002,0 0.0667,0 0.1335,0 0.2002,0 0.0667,0 0.1335,0 0.2002,0 0.0667,0 0.1335,0 0.2002,0 0.0667,0 0.1335,0 0.2002,0 0.0667,0 0.1335,0 0.2002,0 0.0667,0 0.1335,0 0.2002,0 0.0667,0 0.1335,0 0.2002,0 0.0667,0 0.1335,0 0.2002,0 0.0667,0 0.1335,0 0.2002,0 0.0667,0 0.1335,0 0.2002,0 0.0667,0 0.1335,0 0.2002,0 0.0667,0 0.1335,0 0.2002,0 0.0667,0 0.1335,0 0.2002,0 0.0667,0 0.1335,0 0.2002,0 0.0667,0 0.1335,0 0.2002,0 0.0667,0 0.1335,0 0.2002,0 0.0667,0 0.1335,0 0.2002,0 0.0667,0 0.1335,0 0.2002,0 0.0667,0 0.1335,0 0.2002,0 0.0667,0 0.1335,0 0.2002,0 0.0667,0 0.1335,0 0.2002,0 0.0667,0 0.1335,0 0.2002,0 0.0668,0 0.1335,0 0.2002,0 0.0668,0 0.1335,0 0.2002,0 0.0668,0 0.1335,0 0.2002,0 0.0668,0 0.1335,0 0.2002,0 0.0668,0 0.1335,0 0.2002,0 0.0668,0 0.1335,0 0.2002,0 0.0668,0 0.1335,0 0.2002,0 0.0668,0 0.1335,0 0.2002,0 0.0668,0 0.1335,0 0.2002,0 0.0668,0 0.1335,0 0.2002,0 0.0668,0 0.1335,0 0.2002,0 0.0668,0 0.1335,0 0.2002,0 0.0668,0 0.1335,0 0.2002,0 0.0668,0 0.1335,0 0.2002,0 0.0668,0 0.1335,0 0.2002,0 0.0668,0 0.1335,0 0.2002,0 0.0668,0 0.1335,0 0.2002,0 0.0668,0 0.1335,0 0.2002,0 0.0668,0 0.1335,0 0.2002,0 0.0668,0 0.1335,0 0.2002,0 0.0668,0 0.1335,0 0.2002,0 0.0668,0 0.1335,0 0.2002,0 0.0668,0 0.1335,0 0.2002,0 0.0668,0 0.1335,0 0.2002,0 0.0668,0 0.1335,0 0.2002,0 0.0668,0 0.1335,0 0.2002,0 0.0668,0 0.1335,0 0.2002,0 0.0668,0 0.1335,0 0.2002,0 0.0668,0 0.1335,0 0.2002,0 0.0668,0 0.1335,0 0.2002,0 0.0668,0 0.1335,0 0.2002,0 0.0668,0 0.1335,0 0.2002,0 0.0668,0 0.1335,0 0.2002,0 0.0668,0 0.1335,0 0.2002,0 0.0668,0 0.1335,0 0.2002,0 0.0668,0 0.1335,0 0.2002,0 0.0668,0 0.1335,0 0.2002,0 0.0668,0 0.1335,0 0.2002,0 0.0668,0 0.1335,0 0.2002,0 0.0668,0 0.1335,0 0.2002,0 0.0668,0 0.1335,0 0.2002,0 0.0668,0 0.1335,50 0.2002,50 0.0668,0 0.1335,0 0.2002,0 0.0668,0 0.1335,0 0.2002,0 0.0668,0 0.1335,0 0.2002,0 0.0668,0 0.1335,0 0.2002,0 0.0668,0 0.1335,0 0.2002,0 0.0668,0 0.1335,0 0.2002,0 0.0668,0 0.1335,0 0.2002,0 0.0668,0 0.1335,0 0.2002,0 0.0668,0 0.1335,0 0.2002,0 0.0668,0 0.1335,0 0.2002,0 0.0668,0 0.1335,0 0.2002,0 0.0668,0 0.1335,0 0.2002,0 0.0668,0 0.1335,0 0.2002,0 0.0668,0 0.1335,0 0.2002,0 0.0668,0 0.1335,0 0.2002,0 0.0668,0 0.1335,0 0.2002,0 0.0668,0 0.1335,0 0.2002,0 0.0668,0 0.1335,0 0.2002,0 0.0668,0 0.1335,0 0.2002,0 0.0668,0 0.1335,0 0.2002,0 0.0668,0 0.1335,0 0.2002,0 0.0668,0 0.1335,0 0.2002,0 0.0668,0 0.1335,0 0.2002,0 0.0668,0 0.1335,0 0.2002,0 0.0668,0 0.1335,0 0.2002,0 0.0668,0 0.1335,0 0.2002,0 0.0668,0 0.1335,0 0.2002,0 0.0668,0 0.1335,0 0.2002,0 0.0668,0 0.1335,0 0.2002,0 0.0668,0 0.1335,0 0.2002,0 0.0668,0 0.1335,0 0.2002,0 0.0668,0 0.1335,0 0.2002,0 0.0668,0 0.1335,0 0.2002,0 0.0668,0 0.1335,0 0.2002,0 0.0668,0 0.1335,0 0.2002,0 0.0668,0 0.1335,0 0.2002,0 0.0668,0 0.1335,0 0.2002,0 0.0668,0 0.1335,0 0.2002,0 0.0668,0 0.1335,0 0.2002,0 0.0668,0 0.1335,0 0.2002,0 0.0668,0 0.1335,0 0.2002,0 0.0668,0 0.1335,0 0.2002,0 0.0668,0 0.1335,0 0.2002,0 0.0668,0 0.1335,0 0.2002,0 0.0668,0 0.1335,0 0.2002,0 0.0668,0 0.1335,0 0.2002,0 0.0668,0 0.1335,0 0.2002,0 0.0668,0 0.1335,0 0.2002,0 0.0668,0 0.1335,0 0.2002,0 0.0668,0 0.1335,0 0.2002,0 0.0668,0 0.1335,0 0.2002,0 0.0668,0 0.1335,0 0.2002,0 0.0668,0 0.1335,0 0.2002,0 0.0668,0 0.1335,0 0.2002,0 0.0668,0 0.1335,0 0.2002,0 0.0668,0 0.1335,0 0.2002,0 0.0668,0 0.1335,0 0.2002,0 0.0668,0 0.1335,0 0.2002,0 0.0668,0 0.1335,0 0.2002,0 0.0668,0 0.1335,0 0.2002,0 0.0668,0 0.1335,0 0.2002,0 0.0668,0 0.1335,0 0.2002,0 0.0668,0 0.1335,0 0.2002,0 0.0668,0 0.1335,0 0.2002,0 0.0668,0 0.1335,0 0.2002,0 0.0668,0 0.1335,0 0.2002,0 0.0668,0 0.1335,0 0.2002,0 0.0668,0 0.1335,0 0.2002,0 0.0668,0 0.1335,0 0.2002,0 0.0668,0 0.1335,0 0.2002,0 0.0668,0 0.1335,0 0.2002,0 0.0668,0 0.1335,0 0.2002,0 0.0668,0 0.1335,0 0.2002,0 0.0668,0 0.1335,0 0.2002,0 0.0668,0 0.1335,0 0.2002,0 0.0668,0 0.1335,0 0.2002,0 0.0668,0 0.1335,0 0.2002,0 0.0668,0 0.1335,0 0.2002,0 0.0668,0 0.1335,0 0.2002,0 0.0668,0 0.1335,0 0.2002,0 0.0668,0 0.1335,0 0.2002,0 0.0668,0 0.1335,0 0.2002,0 0.0668,0 0.1335,0 0.2002,0 0.0668,0 0.1335,0 0.2002,0 0.0668,0 0.1335,0 0.2002,0 0.0668,0 0.1335,0 0.2002,0 0.0668,0 0.1335,0 0.2002,0 0.0668,0 0.1335,0 0.2002,0 0.0668,0 0.1335,0 0.2002,0 0.0668,0 0.1335,0 0.2002,0 0.0668,0 0.1335,0 0.2002,0 0.0668,0 0.1335,0 0.2002,0 0.0668,0 0.1335,0 0.2002,0 0.0668,0 0.1335,0 0.2002,0 0.0668,0 0.1335,0 0.2002,0 0.0668,0 0.1335,0 0.2002,0 0.0668,0 0.1335,0 0.2002,0 0.0668,0 0.1335,0 0.2002,0 0.0668,0 0.1335,0 0.2002,0 0.0668,0 0.1335,0 0.2002,0 0.0668,0 0.1335,0 0.2002,0 0.0668,0 0.1335,0 0.2002,0 0.0668,0 0.1335,0 0.2002,0 0.0668,0 0.1335,0 0.2002,0 0.0668,0 0.1335,0 0.2002,0 0.0668,0 0.1335,0 0.2002,0 0.0668,0 0.1335,0 0.2002,0 0.0668,0 0.1335,0 0.2002,0 0.0668,0 0.1335,0 0.2002,0 0.0668,0 0.1335,0 0.2002,0 0.0668,0 0.1335,0 0.2002,0 0.0668,0 0.1335,0 0.2002,0 0.0668,0 0.1335,0 0.2002,0 0.0668,0 0.1335,0 0.2002,0 0.0668,0 0.1335,0 0.2002,0 0.0668,0 0.1335,0 0.2002,0 0.0668,0 0.1335,0 0.2002,0 0.0668,0 0.1335,0 0.2002,0 0.0668,0 0.1335,0 0.2002,0 0.0668,0 0.1335,0 0.2002,0 0.0668,0 0.1335,0 0.2002,0 0.0668,0 0.1335,0 0.2002,0 0.0668,0 0.1335,0 0.2002,0 0.0668,0 0.1335,0 0.2002,0 0.0668,0 0.1335,-50 0.2003,-50 0.0667,0 0.1334,0 0.2002,0 0.0667,0 0.1334,0 0.2002,0 0.0667,0 0.1334,0 0.2002,0 0.0667,0 0.1334,0 0.2002,0 0.0667,0 0.1334,0 0.2002,0 0.0667,0 0.1334,0 0.2002,0 0.0667,0 0.1334,0 0.2002,0 0.0667,0 0.1334,0 0.2002,0 0.0667,0 0.1334,0 0.2002,0 0.0667,0 0.1334,0 0.2002,0 0.0667,0 0.1334,0 0.2002,0 0.0667,0 0.1334,0 0.2002,0 0.0667,0 0.1334,0 0.2002,0 0.0667,0 0.1334,0 0.2002,0 0.0667,0 0.1334,0 0.2002,0 0.0667,0 0.1334,0 0.2002,0 0.0667,0 0.1334,0 0.2002,0 0.0667,0 0.1334,0 0.2002,0 0.0667,0 0.1334,0 0.2002,0 0.0667,0 0.1334,0 0.2002,0 0.0667,0 0.1334,0 0.2002,0 0.0667,0 0.1334,0 0.2002,0 0.0667,0 0.1334,0 0.2002,0 0.0667,0 0.1334,0 0.2002,0 0.0667,0 0.1334,0 0.2002,0 0.0667,0 0.1334,0 0.2002,0 0.0667,0 0.1334,0 0.2002,0 0.0667,0 0.1334,0 0.2002,0 0.0667,0 0.1334,0 0.2002,0 0.0667,0 0.1334,0 0.2002,0 0.0667,0 0.1334,0 0.2002,0 0.0667,0 0.1334,0 0.2002,0 0.0667,0 0.1334,0 0.2002,0 0.0667,0 0.1334,0 0.2002,0 0.0667,0 0.1334,0 0.2002,0 0.0667,0 0.1334,0 0.2002,0 0.0667,0 0.1334,0 0.2002,0 0.0667,0 0.1334,0 0.2002,0 0.0667,0 0.1334,0 0.2002,0 0.0667,0 0.1334,0 0.2002,0 0.0667,0 0.1334,0 0.2002,0 0.0667,0 0.1334,0 0.2002,0 0.0667,0 0.1334,0 0.2002,0 0.0667,0 0.1334,0 0.2002,0 0.0667,0 0.1334,0 0.2002,0 0.0667,0 0.1334,0 0.2002,0 0.0667,0 0.1334,0 0.2002,0 0.0667,0 0.1334,0 0.2002,0 0.0667,0 0.1334,0 0.2002,0 0.0667,0 0.1334,0 0.2002,0 0.0667,0 0.1334,0 0.2002,0 0.0667,0 0.1334,0 0.2002,0 0.0667,0 0.1334,0 0.2002,0 0.0667,0 0.1334,0 0.2002,0 0.0667,0 0.1334,0 0.2002,0 0.0667,0 0.1334,0 0.2002,0 0.0667,0 0.1334,0 0.2002,0 0.0667,0 0.1334,0 0.2002,0 0.0667,0 0.1334,0 0.2002,0 0.0667,0 0.1334,0 0.2002,0 0.0667,0 0.1334,0 0.2002,0 0.0667,0 0.1334,0 0.2002,0 0.0667,0 0.1334,0 0.2002,0 0.0667,0 0.1334,0 0.2002,0 0.0667,0 0.1334,0 0.2002,0 0.0667,0 0.1334,0 0.2002,0 0.0667,0 0.1334,0 0.2002,0 0.0667,0 0.1334,0 0.2002,0 0.0667,0 0.1334,0 0.2002,0 0.0667,0 0.1334,0 0.2002,0 0.0667,0 0.1334,0 0.2002,0 0.0667,0 0.1334,0 0.2002,0 0.0667,0 0.1334,0 0.2002,0 0.0667,0 0.1334,0 0.2002,0 0.0667,0 0.1334,0 0.2002,0 0.0667,0 0.1334,0 0.2002,0 0.0667,0 0.1334,0 0.2002,0 0.0667,0 0.1334,0 0.2002,0 0.0667,0 0.1334,0 0.2002,0 0.0667,0 0.1334,0 0.2002,0 0.0667,0 0.1334,0 0.2002,0 0.0667,0 0.1334,0 0.2002,0 0.0667,0 0.1334,0 0.2002,0 0.0667,0 0.1334,0 0.2002,0 0.0667,0 0.1334,0 0.2002,0 0.0667,0 0.1334,0 0.2002,0 0.0667,0 0.1334,0 0.2002,0 0.0667,0 0.1334,0 0.2002,0 0.0667,0 0.1334,0 0.2002,0 0.0667,0 0.1334,0 0.2002,0 0.0667,0 0.1334,0 0.2002,0 0.0667,0 0.1334,0 0.2002,0 0.0667,0 0.1334,0 0.2002,0 0.0667,0 0.1334,0 0.2002,0 0.0667,0 0.1334,0 0.2002,0 0.0667,0 0.1334,0 0.2002,0 0.0667,0 0.1334,0 0.2002,0 0.0667,0 0.1334,0 0.2002,0 0.0667,0 0.1334,0 0.2002,0 0.0667,0 0.1334,0 0.2002,0 0.0667,0 0.1334,0 0.2002,0 0.0667,0 0.1334,0 0.2002,0 0.0667,0 0.1334,0 0.2002,0 0.0667,0 0.1334,0 0.2002,0 0.0667,0 0.1334,0 0.2002,0 0.0667,0 0.1334,0 0.2002,0 0.0667,0 0.1334,0 0.2002,0 0.0667,0 0.1334,0 0.2002,0 0.0667,0 0.1334,0 0.2002,0 0.0667,0 0.1334,0 0.2002,0 0.0667,0 0.1334,0 0.2002,0 0.0667,0 0.1334,0 0.2002,0 0.0667,0 0.1334,0 0.2002,0 0.0667,0 0.1334,0 0.2002,0 0.0667,0 0.1334,0 0.2002,0 0.0667,0 0.1334,0 0.2002,0 0.0667,0 0.1334,0 0.2002,0 0.0667,0 0.1334,0 0.2002,0 0.0667,0 0.1334,0 0.2002,0 0.0667,0 0.1334,0 0.2002,0 0.0667,0 0.1334,0 0.2002,0 0.0667,0 0.1334,0 0.2002,0 0.0667,0 0.1334,0 0.2002,0 0.0667,0 0.1334,0 0.2002,0 0.0667,0 0.1334,50 0.2002,50 0.0667,0 0.1334,0 0.2002,0 0.0667,0 0.1334,0 0.2002,0 0.0667,0 0.1334,0 0.2002,0 0.0667,0 0.1334,0 0.2002,0 0.0667,0 0.1334,0 0.2002,0 0.0667,0 0.1334,0 0.2002,0 0.0667,0 0.1334,0 0.2002,0 0.0667,0 0.1334,0 0.2002,0 0.0667,0 0.1334,0 0.2002,0 0.0667,0 0.1334,0 0.2002,0 0.0667,0 0.1334,0 0.2002,0 0.0667,0 0.1334,0 0.2002,0 0.0667,0 0.1334,0 0.2002,0 0.0667,0 0.1334,0 0.2002,0 0.0667,0 0.1334,0 0.2002,0 0.0667,0 0.1334,0 0.2002,0 0.0667,0 0.1334,0 0.2002,0 0.0667,0 0.1334,0 0.2002,0 0.0667,0 0.1334,0 0.2002,0 0.0667,0 0.1334,0 0.2002,0 0.0667,0 0.1334,0 0.2002,0 0.0667,0 0.1334,0 0.2002,0 0.0667,0 0.1334,0 0.2002,0 0.0667,0 0.1334,0 0.2002,0 0.0667,0 0.1334,0 0.2002,0 0.0667,0 0.1334,0 0.2002,0 0.0667,0 0.1334,0 0.2002,0 0.0667,0 0.1334,0 0.2002,0 0.0667,0 0.1334,0 0.2002,0 0.0667,0 0.1334,0 0.2002,0 0.0667,0 0.1334,0 0.2002,0 0.0667,0 0.1334,0 0.2002,0 0.0667,0 0.1334,0 0.2002,0 0.0667,0 0.1334,0 0.2002,0 0.0667,0 0.1334,0 0.2002,0 0.0667,0 0.1334,0 0.2002,0 0.0667,0 0.1334,0 0.2002,0 0.0667,0 0.1334,0 0.2002,0 0.0667,0 0.1334,0 0.2002,0 0.0667,0 0.1334,0 0.2002,0 0.0667,0 0.1334,0 0.2002,0 0.0667,0 0.1335,0 0.2002,0 0.0667,0 0.1335,0 0.2002,0 0.0667,0 0.1335,0 0.2002,0 0.0667,0 0.1335,0 0.2002,0 0.0667,0 0.1335,0 0.2002,0 0.0667,0 0.1335,0 0.2002,0 0.0667,0 0.1335,0 0.2002,0 0.0667,0 0.1335,0 0.2002,0 0.0667,0 0.1335,0 0.2002,0 0.0667,0 0.1335,0 0.2002,0 0.0667,0 0.1335,0 0.2002,0 0.0667,0 0.1335,0 0.2002,0 0.0667,0 0.1335,0 0.2002,0 0.0667,0 0.1335,0 0.2002,0 0.0667,0 0.1335,0 0.2002,0 0.0667,0 0.1335,0 0.2002,0 0.0667,0 0.1335,0 0.2002,0 0.0667,0 0.1335,0 0.2002,0 0.0667,0 0.1335,0 0.2002,0 0.0667,0 0.1335,0 0.2002,0 0.0667,0 0.1335,0 0.2002,0 0.0667,0 0.1335,0 0.2002,0 0.0667,0 0.1335,0 0.2002,0 0.0667,0 0.1335,0 0.2002,0 0.0667,0 0.1335,0 0.2002,0 0.0667,0 0.1335,0 0.2002,0 0.0667,0 0.1335,0 0.2002,0 0.0667,0 0.1335,0 0.2002,0 0.0667,0 0.1335,0 0.2002,0 0.0667,0 0.1335,0 0.2002,0 0.0667,0 0.1335,0 0.2002,0 0.0667,0 0.1335,0 0.2002,0 0.0667,0 0.1335,0 0.2002,0 0.0667,0 0.1335,0 0.2002,0 0.0667,0 0.1335,0 0.2002,0 0.0667,0 0.1335,0 0.2002,0 0.0667,0 0.1335,0 0.2002,0 0.0667,0 0.1335,0 0.2002,0 0.0667,0 0.1335,0 0.2002,0 0.0667,0 0.1335,0 0.2002,0 0.0667,0 0.1335,0 0.2002,0 0.0667,0 0.1335,0 0.2002,0 0.0667,0 0.1335,0 0.2002,0 0.0667,0 0.1335,0 0.2002,0 0.0667,0 0.1335,0 0.2002,0 0.0667,0 0.1335,0 0.2002,0 0.0667,0 0.1335,0 0.2002,0 0.0667,0 0.1335,0 0.2002,0 0.0667,0 0.1335,0 0.2002,0 0.0667,0 0.1335,0 0.2002,0 0.0667,0 0.1335,0 0.2002,0 0.0667,0 0.1335,0 0.2002,0 0.0667,0 0.1335,0 0.2002,0 0.0667,0 0.1335,0 0.2002,0 0.0667,0 0.1335,0 0.2002,0 0.0667,0 0.1335,0 0.2002,0 0.0667,0 0.1335,0 0.2002,0 0.0667,0 0.1335,0 0.2002,0 0.0667,0 0.1335,0 0.2002,0 0.0667,0 0.1335,0 0.2002,0 0.0667,0 0.1335,0 0.2002,0 0.0667,0 0.1335,0 0.2002,0 0.0667,0 0.1335,0 0.2002,0 0.0667,0 0.1335,0 0.2002,0 0.0667,0 0.1335,0 0.2002,0 0.0667,0 0.1335,0 0.2002,0 0.0667,0 0.1335,0 0.2002,0 0.0667,0 0.1335,0 0.2002,0 0.0667,0 0.1335,0 0.2002,0 0.0667,0 0.1335,0 0.2002,0 0.0667,0 0.1335,0 0.2002,0 0.0667,0 0.1335,0 0.2002,0 0.0667,0 0.1335,0 0.2002,0 0.0667,0 0.1335,0 0.2002,0 0.0667,0 0.1335,0 0.2002,0 0.0667,0 0.1335,0 0.2002,0 0.0667,0 0.1335,0 0.2002,0 0.0667,0 0.1335,0 0.2002,0 0.0667,0 0.1335,0 0.2002,0 0.0667,0 0.1335,0 0.2002,0 0.0667,0 0.1335,0 0.2002,0 0.0667,0 0.1335,0 0.2002,0 0.0667,0 0.1335,0 0.2002,0 0.0667,0 0.1331,-50 0.2001,-50 0.067,0 0.134,0 0.2,0 0.067,0 0.134,0 0.201,0 0.066,0 0.133,0 0.2,0 0.066,0 0.133,0 0.2,0 0.067,0 0.133,0 0.2,0 0.067,0 0.134,0 0.2,0 0.067,0 0.134,0 0.201,0 0.066,0 0.133,0 0.2,0 0.066,0 0.133,0 0.2,0 0.067,0 0.133,0 0.2,0 0.067,0 0.134,0 0.2,0 0.067,0 0.134,0 0.201,0 0.066,0 0.133,0 0.2,0 0.066,0 0.133,0 0.2,0 0.067,0 0.133,0 0.2,0 0.067,0 0.134,0 0.2,0 0.067,0 0.134,0 0.201,0 0.066,0 0.133,0 0.2,0 0.066,0 0.133,0 0.2,0 0.067,0 0.133,0 0.2,0 0.067,0 0.134,0 0.2,0 0.067,0 0.134,0 0.201,0 0.066,0 0.133,0 0.2,0 0.066,0 0.133,0 0.2,0 0.067,0 0.133,0 0.2,0 0.067,0 0.134,0 0.2,0 0.067,0 0.134,0 0.201,0 0.066,0 0.133,0 0.2,0 0.066,0 0.133,0 0.2,0 0.067,0 0.133,0 0.2,0 0.067,0 0.134,0 0.2,0 0.067,0 0.134,0 0.201,0 0.066,0 0.133,0 0.2,0 0.066,0 0.133,0 0.2,0 0.067,0 0.133,0 0.2,0 0.067,0 0.134,0 0.2,0 0.067,0 0.134,0 0.201,0 0.066,0 0.133,0 0.2,0 0.066,0 0.133,0 0.2,0 0.067,0 0.133,0 0.2,0 0.067,0 0.134,0 0.2,0 0.067,0 0.134,0 0.201,0 0.066,0 0.133,0 0.2,0 0.066,0 0.133,0 0.2,0 0.067,0 0.133,0 0.2,0 0.067,0 0.134,0 0.2,0 0.067,0 0.134,0 0.201,0 0.066,0 0.133,0 0.2,0 0.066,0 0.133,0 0.2,0 0.067,0 0.133,0 0.2,0 0.067,0 0.134,0 0.2,0 0.067,0 0.134,0 0.201,0 0.066,0 0.133,0 0.2,0 0.066,0 0.133,0 0.2,0 0.067,0 0.133,0 0.2,0 0.067,0 0.134,0 0.2,0 0.067,0 0.134,0 0.201,0 0.066,0 0.133,0 0.2,0 0.066,0 0.133,0 0.2,0 0.067,0 0.133,0 0.2,0 0.067,0 0.134,0 0.2,0 0.067,0 0.134,0 0.201,0 0.066,0 0.133,0 0.2,0 0.066,0 0.133,0 0.2,0 0.067,0 0.133,0 0.2,0 0.067,0 0.134,0 0.2,0 0.067,0 0.134,0 0.201,0 0.066,0 0.133,0 0.2,0 0.066,0 0.133,0 0.2,0 0.067,0 0.133,0 0.2,0 0.067,0 0.134,0 0.2,0 0.067,0 0.134,0 0.201,0 0.066,0 0.133,0 0.2,0 0.066,0 0.133,0 0.2,0 0.067,0 0.133,0 0.2,0 0.067,0 0.134,0 0.2,0 0.067,0 0.134,0 0.201,0 0.066,0 0.133,0 0.2,0 0.066,0 0.133,0 0.2,0 0.067,0 0.133,0 0.2,0 0.067,0 0.134,0 0.2,0 0.067,0 0.134,0 0.201,0 0.066,0 0.133,0 0.2,0 0.066,0 0.133,0 0.2,0 0.067,0 0.133,0 0.2,0 0.067,0 0.134,0 0.2,0 0.067,0 0.134,0 0.201,0 0.066,0 0.133,0 0.2,0 0.066,0 0.133,0 0.2,0 0.067,0 0.133,0 0.2,0 0.067,0 0.134,0 0.2,0 0.067,0 0.134,0 0.201,0 0.066,0 0.133,0 0.2,0 0.066,0 0.133,0 0.2,0 0.067,0 0.133,0 0.2,0 0.067,0 0.134,0 0.2,0 0.067,0 0.134,0 0.201,0 0.066,0 0.133,0 0.2,0 0.066,0 0.133,0 0.2,0 0.067,0 0.133,0 0.2,0 0.067,0 0.134,0 0.2,0 0.067,0 0.134,0 0.201,0 0.066,0 0.133,0 0.2,0 0.066,0 0.133,0 0.2,0 0.067,0 0.133,0 0.2,0 0.067,0 0.134,0 0.2,0 0.067,0 0.134,0 0.201,0 0.066,0 0.133,0 0.2,0 0.066,0 0.133,0 0.2,0 0.067,0 0.133,0 0.2,0 0.067,0 0.134,0 0.2,0 0.067,0 0.134,0 0.201,0 0.066,0 0.133,0 0.2,0 0.066,0 0.133,0 0.2,0 0.067,0 0.133,0 0.2,0 0.067,0 0.134,0 0.2,0 0.067,0 0.134,0 0.201,0 0.066,0 0.133,0 0.2,0 0.066,0 0.133,0 0.2,0 0.067,0 0.133,0 0.2,0 0.067,0 0.134,0 0.2,0 0.067,0 0.134,0 0.201,0 0.066,0 0.133,0 0.2,0 0.066,0 0.133,0 0.2,0 0.067,0 0.133,50 0.2,50 0.067,0 0.134,0 0.2,0 0.067,0 0.134,0 0.201,0 0.066,0 0.133,0 0.2,0 0.066,0 0.133,0 0.2,0 0.067,0 0.133,0 0.2,0 0.067,0 0.134,0 0.2,0 0.067,0 0.134,0 0.201,0 0.066,0 0.133,0 0.2,0 0.066,0 0.133,0 0.2,0 0.067,0 0.133,0 0.2,0 0.067,0 0.134,0 0.2,0 0.067,0 0.134,0 0.201,0 0.066,0 0.133,0 0.2,0 0.066,0 0.133,0 0.2,0 0.067,0 0.133,0 0.2,0 0.067,0 0.134,0 0.2,0 0.067,0 0.134,0 0.201,0 0.066,0 0.133,0 0.2,0 0.066,0 0.133,0 0.2,0 0.067,0 0.133,0 0.2,0 0.067,0 0.134,0 0.2,0 0.067,0 0.134,0 0.201,0 0.066,0 0.133,0 0.2,0 0.066,0 0.133,0 0.2,0 0.067,0 0.133,0 0.2,0 0.067,0 0.134,0 0.2,0 0.067,0 0.134,0 0.201,0 0.066,0 0.133,0 0.2,0 0.066,0 0.133,0 0.2,0 0.067,0 0.133,0 0.2,0 0.067,0 0.134,0 0.2,0 0.067,0 0.134,0 0.201,0 0.066,0 0.133,0 0.2,0 0.066,0 0.133,0 0.2,0 0.067,0 0.133,0 0.2,0 0.067,0 0.134,0 0.2,0 0.067,0 0.134,0 0.201,0 0.066,0 0.133,0 0.2,0 0.066,0 0.133,0 0.2,0 0.067,0 0.133,0 0.2,0 0.067,0 0.134,0 0.2,0 0.067,0 0.134,0 0.201,0 0.066,0 0.133,0 0.2,0 0.066,0 0.133,0 0.2,0 0.067,0 0.133,0 0.2,0 0.067,0 0.134,0 0.2,0 0.067,0 0.134,0 0.201,0 0.066,0 0.133,0 0.2,0 0.066,0 0.133,0 0.2,0 0.067,0 0.133,0 0.2,0 0.067,0 0.134,0 0.2,0 0.067,0 0.134,0 0.201,0 0.066,0 0.133,0 0.2,0 0.066,0 0.133,0 0.2,0 0.067,0 0.133,0 0.2,0 0.067,0 0.134,0 0.2,0 0.067,0 0.134,0 0.201,0 0.066,0 0.133,0 0.2,0 0.066,0 0.133,0 0.2,0 0.067,0 0.133,0 0.2,0 0.067,0 0.134,0 0.2,0 0.067,0 0.134,0 0.201,0 0.066,0 0.133,0 0.2,0 0.066,0 0.133,0 0.2,0 0.067,0 0.133,0 0.2,0 0.067,0 0.134,0 0.2,0 0.067,0 0.134,0 0.201,0 0.066,0 0.133,0 0.2,0 0.066,0 0.133,0 0.2,0 0.067,0 0.133,0 0.2,0 0.067,0 0.134,0 0.2,0 0.067,0 0.134,0 0.201,0 0.066,0 0.133,0 0.2,0 0.066,0 0.133,0 0.2,0 0.067,0 0.133,0 0.2,0 0.067,0 0.134,0 0.2,0 0.067,0 0.134,0 0.201,0 0.066,0 0.133,0 0.2,0 0.066,0 0.133,0 0.2,0 0.067,0 0.133,0 0.2,0 0.067,0 0.134,0 0.2,0 0.067,0 0.134,0 0.201,0 0.066,0 0.133,0 0.2,0 0.066,0 0.133,0 0.2,0 0.067,0 0.133,0 0.2,0 0.067,0 0.134,0 0.2,0 0.067,0 0.134,0 0.201,0 0.066,0 0.133,0 0.2,0 0.066,0 0.133,0 0.2,0 0.067,0 0.133,0 0.2,0 0.067,0 0.134,0 0.2,0 0.067,0 0.134,0 0.201,0 0.066,0 0.133,0 0.2,0 0.066,0 0.133,0 0.2,0 0.067,0 0.133,0 0.2,0 0.067,0 0.134,0 0.2,0 0.067,0 0.134,0 0.201,0 0.066,0 0.133,0 0.2,0 0.066,0 0.133,0 0.2,0 0.067,0 0.133,0 0.2,0 0.067,0 0.134,0 0.2,0 0.067,0 0.134,0 0.201,0 0.066,0 0.133,0 0.2,0 0.066,0 0.133,0 0.2,0 0.067,0 0.133,0 0.2,0 0.067,0 0.134,0 0.2,0 0.067,0 0.134,0 0.201,0 0.066,0 0.133,0 0.2,0 0.066,0 0.133,0 0.2,0 0.067,0 0.133,0 0.2,0 0.067,0 0.134,0 0.2,0 0.067,0 0.134,0 0.201,0 0.066,0 0.133,0 0.2,0 0.066,0 0.133,0 0.2,0 0.067,0 0.133,0 0.2,0 0.067,0 0.134,0 0.2,0 0.067,0 0.134,0 0.201,0 0.066,0 0.133,0 0.2,0 0.066,0 0.133,0 0.2,0 0.067,0 0.133,0 0.2,0 0.067,0 0.134,0 0.2,0 0.067,0 0.134,0 0.201,0 0.066,0 0.133,0 0.2,0 0.066,0 0.133,0 0.2,0 0.067,0 0.133,-50 0.2,-50 0.067,0 0.134,0 0.2,0 0.067,0 0.134,0 0.201,0 0.066,0 0.133,0 0.2,0 0.066,0 0.133,0 0.2,0 0.067,0 0.133,0 0.2,0 0.067,0 0.134,0 0.2,0 0.067,0 0.134,0 0.201,0 0.066,0 0.133,0 0.2,0 0.066,0 0.133,0 0.2,0 0.067,0 0.133,0 0.2,0 0.067,0 0.134,0 0.2,0 0.067,0 0.134,0 0.201,0 0.066,0 0.133,0 0.2,0 0.066,0 0.133,0 0.2,0 0.067,0 0.133,0 0.2,0 0.067,0 0.134,0 0.2,0 0.067,0 0.134,0 0.201,0 0.066,0 0.133,0 0.2,0 0.066,0 0.133,0 0.2,0 0.067,0 0.133,0 0.2,0 0.067,0 0.134,0 0.2,0 0.067,0 0.134,0 0.201,0 0.066,0 0.133,0 0.2,0 0.066,0 0.133,0 0.2,0 0.067,0 0.133,0 0.2,0 0.067,0 0.134,0 0.2,0 0.067,0 0.134,0 0.201,0 0.066,0 0.133,0 0.2,0 0.066,0 0.133,0 0.2,0 0.067,0 0.133,0 0.2,0 0.067,0 0.134,0 0.2,0 0.067,0 0.134,0 0.201,0 0.066,0 0.133,0 0.2,0 0.066,0 0.133,0 0.2,0 0.067,0 0.133,0 0.2,0 0.067,0 0.134,0 0.2,0 0.067,0 0.134,0 0.201,0 0.066,0 0.133,0 0.2,0 0.066,0 0.133,0 0.2,0 0.067,0 0.133,0 0.2,0 0.067,0 0.134,0 0.2,0 0.067,0 0.134,0 0.201,0 0.066,0 0.133,0 0.2,0 0.066,0 0.133,0 0.2,0 0.067,0 0.133,0 0.2,0 0.067,0 0.134,0 0.2,0 0.067,0 0.134,0 0.201,0 0.066,0 0.133,0 0.2,0 0.066,0 0.133,0 0.2,0 0.067,0 0.133,0 0.2,0 0.067,0 0.134,0 0.2,0 0.067,0 0.134,0 0.201,0 0.066,0 0.133,0 0.2,0 0.066,0 0.133,0 0.2,0 0.067,0 0.133,0 0.2,0 0.067,0 0.134,0 0.2,0 0.067,0 0.134,0 0.201,0 0.066,0 0.133,0 0.2,0 0.066,0 0.133,0 0.2,0 0.067,0 0.133,0 0.2,0 0.067,0 0.134,0 0.2,0 0.067,0 0.134,0 0.201,0 0.066,0 0.133,0 0.2,0 0.066,0 0.133,0 0.2,0 0.067,0 0.133,0 0.2,0 0.067,0 0.134,0 0.2,0 0.067,0 0.134,0 0.201,0 0.066,0 0.133,0 0.2,0 0.066,0 0.133,0 0.2,0 0.067,0 0.133,0 0.2,0 0.067,0 0.134,0 0.2,0 0.067,0 0.134,0 0.201,0 0.066,0 0.133,0 0.2,0 0.066,0 0.133,0 0.2,0 0.067,0 0.133,0 0.2,0 0.067,0 0.134,0 0.2,0 0.067,0 0.134,0 0.201,0 0.066,0 0.133,0 0.2,0 0.066,0 0.133,0 0.2,0 0.067,0 0.133,0 0.2,0 0.067,0 0.134,0 0.2,0 0.067,0 0.134,0 0.201,0 0.066,0 0.133,0 0.2,0 0.067,0 0.133,0 0.2,0 0.067,0 0.133,0 0.2,0 0.067,0 0.134,0 0.2,0 0.067,0 0.134,0 0.201,0 0.066,0 0.133,0 0.2,0 0.067,0 0.133,0 0.2,0 0.067,0 0.133,0 0.2,0 0.067,0 0.134,0 0.2,0 0.067,0 0.134,0 0.201,0 0.066,0 0.133,0 0.2,0 0.067,0 0.133,0 0.2,0 0.067,0 0.133,0 0.2,0 0.067,0 0.134,0 0.2,0 0.067,0 0.134,0 0.201,0 0.066,0 0.133,0 0.2,0 0.067,0 0.133,0 0.2,0 0.067,0 0.133,0 0.2,0 0.067,0 0.134,0 0.2,0 0.067,0 0.134,0 0.201,0 0.066,0 0.133,0 0.2,0 0.067,0 0.133,0 0.2,0 0.067,0 0.133,0 0.2,0 0.067,0 0.134,0 0.2,0 0.067,0 0.134,0 0.201,0 0.066,0 0.133,0 0.2,0 0.067,0 0.133,0 0.2,0 0.067,0 0.133,0 0.2,0 0.067,0 0.134,0 0.2,0 0.067,0 0.134,0 0.201,0 0.066,0 0.133,0 0.2,0 0.067,0 0.133,0 0.2,0 0.067,0 0.133,0 0.2,0 0.067,0 0.134,0 0.2,0 0.067,0 0.134,0 0.201,0 0.066,0 0.133,0 0.2,0 0.067,0 0.133,0 0.2,0 0.067,0 0.133,0 0.2,0 0.067,0 0.134,0 0.2,0 0.067,0 0.134,0 0.201,0 0.066,0 0.133,0 0.2,0 0.067,0 0.133,0 0.2,0 0.067,0 0.133,50 0.2,50 0.067,0 0.134,0 0.2,0 0.067,0 0.134,0 0.201,0 0.066,0 0.133,0 0.2,0 0.067,0 0.133,0 0.2,0 0.067,0 0.133,0 0.2,0 0.067,0 0.134,0 0.2,0 0.067,0 0.134,0 0.201,0 0.066,0 0.133,0 0.2,0 0.067,0 0.133,0 0.2,0 0.067,0 0.133,0 0.2,0 0.067,0 0.134,0 0.2,0 0.067,0 0.134,0 0.201,0 0.066,0 0.133,0 0.2,0 0.067,0 0.133,0 0.2,0 0.067,0 0.133,0 0.2,0 0.067,0 0.134,0 0.2,0 0.067,0 0.134,0 0.201,0 0.066,0 0.133,0 0.2,0 0.067,0 0.133,0 0.2,0 0.067,0 0.133,0 0.2,0 0.067,0 0.134,0 0.2,0 0.067,0 0.134,0 0.201,0 0.066,0 0.133,0 0.2,0 0.067,0 0.133,0 0.2,0 0.067,0 0.133,0 0.2,0 0.067,0 0.134,0 0.2,0 0.067,0 0.134,0 0.201,0 0.066,0 0.133,0 0.2,0 0.067,0 0.133,0 0.2,0 0.067,0 0.133,0 0.2,0 0.067,0 0.134,0 0.2,0 0.067,0 0.134,0 0.201,0 0.066,0 0.133,0 0.2,0 0.067,0 0.133,0 0.2,0 0.067,0 0.133,0 0.2,0 0.067,0 0.134,0 0.2,0 0.067,0 0.134,0 0.201,0 0.066,0 0.133,0 0.2,0 0.067,0 0.133,0 0.2,0 0.067,0 0.133,0 0.2,0 0.067,0 0.134,0 0.2,0 0.067,0 0.134,0 0.201,0 0.066,0 0.133,0 0.2,0 0.067,0 0.133,0 0.2,0 0.067,0 0.133,0 0.2,0 0.067,0 0.134,0 0.2,0 0.067,0 0.134,0 0.201,0 0.066,0 0.133,0 0.2,0 0.067,0 0.133,0 0.2,0 0.067,0 0.133,0 0.2,0 0.067,0 0.134,0 0.2,0 0.067,0 0.134,0 0.201,0 0.066,0 0.133,0 0.2,0 0.067,0 0.133,0 0.2,0 0.067,0 0.133,0 0.2,0 0.067,0 0.134,0 0.2,0 0.067,0 0.134,0 0.201,0 0.066,0 0.133,0 0.2,0 0.067,0 0.133,0 0.2,0 0.067,0 0.133,0 0.2,0 0.067,0 0.134,0 0.2,0 0.067,0 0.134,0 0.201,0 0.066,0 0.133,0 0.2,0 0.067,0 0.133,0 0.2,0 0.067,0 0.133,0 0.2,0 0.067,0 0.134,0 0.2,0 0.067,0 0.134,0 0.201,0 0.066,0 0.133,0 0.2,0 0.067,0 0.133,0 0.2,0 0.067,0 0.133,0 0.2,0 0.067,0 0.134,0 0.2,0 0.067,0 0.134,0 0.201,0 0.066,0 0.133,0 0.2,0 0.067,0 0.133,0 0.2,0 0.067,0 0.133,0 0.2,0 0.067,0 0.134,0 0.2,0 0.067,0 0.134,0 0.201,0 0.066,0 0.133,0 0.2,0 0.067,0 0.133,0 0.2,0 0.067,0 0.133,0 0.2,0 0.067,0 0.134,0 0.2,0 0.067,0 0.134,0 0.201,0 0.066,0 0.133,0 0.2,0 0.067,0 0.133,0 0.2,0 0.067,0 0.133,0 0.2,0 0.067,0 0.134,0 0.2,0 0.067,0 0.134,0 0.201,0 0.066,0 0.133,0 0.2,0 0.067,0 0.133,0 0.2,0 0.067,0 0.133,0 0.2,0 0.067,0 0.134,0 0.2,0 0.067,0 0.134,0 0.201,0 0.066,0 0.133,0 0.2,0 0.067,0 0.133,0 0.2,0 0.067,0 0.133,0 0.2,0 0.067,0 0.134,0 0.2,0 0.067,0 0.134,0 0.201,0 0.066,0 0.133,0 0.2,0 0.067,0 0.133,0 0.2,0 0.067,0 0.133,0 0.2,0 0.067,0 0.134,0 0.2,0 0.067,0 0.134,0 0.201,0 0.066,0 0.133,0 0.2,0 0.067,0 0.133,0 0.2,0 0.067,0 0.133,0 0.2,0 0.067,0 0.134,0 0.2,0 0.067,0 0.134,0 0.201,0 0.066,0 0.133,0 0.2,0 0.067,0 0.133,0 0.2,0 0.067,0 0.133,0 0.2,0 0.067,0 0.134,0 0.2,0 0.067,0 0.134,0 0.201,0 0.066,0 0.133,0 0.2,0 0.067,0 0.133,0 0.2,0 0.067,0 0.133,0 0.2,0 0.067,0 0.134,0 0.2,0 0.067,0 0.134,0 0.201,0 0.066,0 0.133,0 0.2,0 0.067,0 0.133,0 0.2,0 0.067,0 0.133,0 0.2,0 0.067,0 0.134,0 0.2,0 0.067,0 0.134,0 0.201,0 0.066,0 0.133,0 0.2,0 0.067,0 0.133,0 0.2,0"
       title="copysign(1,  sin(x))"
       id="path4" />
  </g>
</svg>
