<?xml version="1.0" encoding="UTF-8" standalone="no"?>
<!-- Created with Inkscape (http://www.inkscape.org/) -->

<svg
   width="20.071453cm"
   height="5.0750055cm"
   viewBox="0 0 200.71453 50.750055"
   version="1.1"
   id="svg1"
   inkscape:version="1.3.2 (091e20ef0f, 2023-11-25, custom)"
   sodipodi:docname="sine_vs_pwm.svg"
   xmlns:inkscape="http://www.inkscape.org/namespaces/inkscape"
   xmlns:sodipodi="http://sodipodi.sourceforge.net/DTD/sodipodi-0.dtd"
   xmlns="http://www.w3.org/2000/svg"
   xmlns:svg="http://www.w3.org/2000/svg">
  <sodipodi:namedview
     id="namedview1"
     pagecolor="#505050"
     bordercolor="#eeeeee"
     borderopacity="1"
     inkscape:showpageshadow="0"
     inkscape:pageopacity="0"
     inkscape:pagecheckerboard="false"
     inkscape:deskcolor="#505050"
     inkscape:document-units="cm"
     inkscape:zoom="0.80969847"
     inkscape:cx="187.7242"
     inkscape:cy="226.62758"
     inkscape:window-width="1556"
     inkscape:window-height="837"
     inkscape:window-x="0"
     inkscape:window-y="0"
     inkscape:window-maximized="1"
     inkscape:current-layer="layer1"
     showgrid="true">
    <inkscape:grid
       id="grid2"
       units="cm"
       originx="0.35732673"
       originy="-12.124973"
       spacingx="0.99999999"
       spacingy="0.99999999"
       empcolor="#0099e5"
       empopacity="0.30196078"
       color="#0099e5"
       opacity="0.14901961"
       empspacing="5"
       dotted="false"
       gridanglex="30"
       gridanglez="30"
       visible="true" />
  </sodipodi:namedview>
  <defs
     id="defs1" />
  <g
     inkscape:label="Layer 1"
     inkscape:groupmode="layer"
     id="layer1"
     transform="translate(0.35732672,-12.124973)">
    <path
       style="fill:none;fill-opacity:1;stroke:#e7ad52;stroke-width:0.750001;stroke-dasharray:none;stroke-opacity:1"
       d="M 0,37.5 C 0.0667334,37.2904 0.133467,37.0807 0.2002,36.8711 0.266934,36.6615 0.333667,36.452 0.4004,36.2426 0.467134,36.0333 0.533867,35.824 0.600601,35.6149 0.667334,35.4059 0.734067,35.197 0.800801,34.9885 0.867534,34.7799 0.934268,34.5715 1.001,34.3635 1.06773,34.1556 1.13447,33.9479 1.2012,33.7406 1.26793,33.5334 1.33467,33.3265 1.4014,33.1201 1.46813,32.9137 1.53487,32.7077 1.6016,32.5023 1.66834,32.2969 1.73507,32.092 1.8018,31.8877 1.86854,31.6834 1.93527,31.4797 2.002,31.2767 2.06874,31.0736 2.13547,30.8712 2.2022,30.6695 2.26894,30.4679 2.33567,30.2669 2.4024,30.0668 2.46914,29.8666 2.53587,29.6672 2.6026,29.4687 2.66934,29.2701 2.73607,29.0724 2.8028,28.8757 2.86954,28.6789 2.93627,28.483 3.003,28.2881 3.06974,28.0932 3.13647,27.8993 3.2032,27.7064 3.26994,27.5135 3.33667,27.3216 3.4034,27.1309 3.47014,26.9401 3.53687,26.7504 3.6036,26.5619 3.67034,26.3734 3.73707,26.186 3.8038,25.9999 3.87054,25.8137 3.93727,25.6288 4.004,25.4451 4.07074,25.2615 4.13747,25.0791 4.2042,24.898 4.27094,24.7169 4.33767,24.5372 4.4044,24.3589 4.47114,24.1805 4.53787,24.0036 4.6046,23.828 c 0.06674,-0.1755 0.13347,-0.3496 0.2002,-0.5222 0.06674,-0.1725 0.13347,-0.3436 0.20021,-0.5131 0.06673,-0.1696 0.13346,-0.3376 0.2002,-0.5039 0.06673,-0.1664 0.13346,-0.3312 0.2002,-0.4943 0.06673,-0.1631 0.13346,-0.3246 0.2002,-0.4843 0.06673,-0.1598 0.13346,-0.3178 0.2002,-0.4741 0.06673,-0.1563 0.13346,-0.3108 0.2002,-0.4635 0.06673,-0.1527 0.13346,-0.3037 0.2002,-0.4527 0.06673,-0.1491 0.13346,-0.2963 0.2002,-0.4416 0.06673,-0.1453 0.13346,-0.2887 0.2002,-0.4301 0.06673,-0.1415 0.13346,-0.281 0.2002,-0.4185 0.06673,-0.1375 0.13346,-0.2731 0.2002,-0.4066 0.06673,-0.1335 0.13346,-0.2649 0.2002,-0.3943 0.06673,-0.1294 0.13346,-0.2567 0.2002,-0.3819 0.06673,-0.1252 0.13346,-0.2482 0.2002,-0.3692 0.06673,-0.1209 0.13346,-0.2397 0.2002,-0.3562 0.06673,-0.1166 0.13346,-0.231 0.2002,-0.3432 0.06673,-0.1121 0.13346,-0.2221 0.2002,-0.3297 0.06673,-0.1077 0.13347,-0.2131 0.2002,-0.3162 0.06673,-0.1031 0.13347,-0.2039 0.2002,-0.3024 0.06673,-0.0985 0.13347,-0.1946 0.2002,-0.2884 0.06673,-0.0938 0.13347,-0.1853 0.2002,-0.2743 0.06673,-0.0891 0.13347,-0.1757 0.2002,-0.26 0.06673,-0.0842 0.13347,-0.166 0.2002,-0.2454 0.06673,-0.0794 0.13347,-0.1564 0.2002,-0.2309 0.06673,-0.0745 0.13347,-0.1465 0.2002,-0.216 0.06673,-0.0695 0.13347,-0.1366 0.20019,-0.2011 0.0667,-0.0645 0.1335,-0.1266 0.2002,-0.1861 0.0667,-0.0595 0.1335,-0.1164 0.2002,-0.1709 0.0667,-0.0544 0.1335,-0.1062 0.2002,-0.1556 0.0667,-0.0493 0.1335,-0.096 0.2002,-0.1402 0.0667,-0.0442 0.1335,-0.0857 0.2002,-0.1247 0.0667,-0.039 0.1335,-0.0754 0.2002,-0.1093 0.0667,-0.0338 0.1335,-0.065 0.2002,-0.0935 0.0667,-0.0286 0.1335,-0.0546 0.2002,-0.078 0.0667,-0.0233 0.1335,-0.0441 0.2002,-0.0622 0.0667,-0.0181 0.1335,-0.0336 0.2002,-0.0464 0.0667,-0.0129 0.1335,-0.0231 0.2002,-0.0307 0.0667,-0.0075 0.1335,-0.0125 0.2002,-0.0148 0.0667,-0.0023 0.1335,-0.002 0.2002,10e-4 0.0667,0.003 0.1335,0.0086 0.2002,0.0168 0.0667,0.0082 0.1335,0.0191 0.2002,0.0326 0.0667,0.0135 0.1335,0.0297 0.2002,0.0484 0.0667,0.0188 0.1335,0.0402 0.2002,0.0642 0.0667,0.024 0.1335,0.0507 0.2002,0.0799 0.0667,0.0292 0.1335,0.0611 0.2002,0.0955 0.0667,0.0345 0.1335,0.0716 0.2002,0.1112 0.0667,0.0397 0.1335,0.0819 0.2002,0.1267 0.0667,0.0448 0.1335,0.0922 0.2002,0.1422 0.0667,0.0499 0.1335,0.1024 0.2002,0.1575 0.0667,0.055 0.1335,0.1126 0.2002,0.1728 0.0667,0.0601 0.1335,0.1227 0.2002,0.1879 0.0667,0.0652 0.1335,0.1328 0.2002,0.203 0.0667,0.0701 0.1335,0.1428 0.2002,0.2179 0.0667,0.0751 0.1335,0.1526 0.2002,0.2326 0.0667,0.08 0.1335,0.1625 0.2002,0.2473 0.0667,0.0849 0.1335,0.1721 0.2002,0.2618 0.0667,0.0896 0.1335,0.1817 0.2002,0.2761 0.0667,0.0943 0.1335,0.1911 0.2002,0.2901 0.0667,0.0991 0.1335,0.2005 0.2002,0.3042 0.0668,0.1037 0.1335,0.2096 0.2002,0.3179 0.0668,0.1082 0.1335,0.2187 0.2002,0.3314 0.0668,0.1127 0.1335,0.2276 0.2002,0.3448 0.0668,0.1171 0.1335,0.2364 0.2002,0.3579 0.0668,0.1214 0.1335,0.245 0.2002,0.3708 0.0668,0.1257 0.1335,0.2535 0.2002,0.3834 0.0668,0.1299 0.1335,0.2619 0.2002,0.3959 0.0668,0.134 0.1335,0.27 0.2002,0.408 0.0668,0.1381 0.1335,0.2781 0.2002,0.42 0.0668,0.1419 0.1335,0.2858 0.2002,0.4316 0.0668,0.1458 0.1335,0.2934 0.2002,0.443 0.0668,0.1495 0.1335,0.3009 0.2002,0.454 0.0668,0.1532 0.1335,0.3082 0.2002,0.4649 0.0668,0.1567 0.1335,0.3152 0.2002,0.4754 0.0668,0.1601 0.1335,0.322 0.2002,0.4855 0.0668,0.1636 0.1335,0.3288 0.2002,0.4955 0.0668,0.1668 0.1335,0.3352 0.2002,0.5051 0.0668,0.1699 0.1335,0.3414 0.2002,0.5143 0.0668,0.173 0.1335,0.3474 0.2002,0.5233 0.0668,0.1759 0.1335,0.3532 0.2002,0.5319 0.0668,0.1787 0.1335,0.3588 0.2002,0.5402 0.0668,0.1814 0.1335,0.3641 0.2002,0.5481 0.0668,0.184 0.1335,0.3692 0.2002,0.5557 0.0668,0.1864 0.1335,0.3741 0.2002,0.5629 0.0668,0.1888 0.1335,0.3787 0.2002,0.5698 0.0668,0.191 0.1335,0.3831 0.2002,0.5763 0.0668,0.1931 0.1335,0.3873 0.2002,0.5824 0.0668,0.1952 0.1335,0.3913 0.2002,0.5883 0.0668,0.197 0.1335,0.3949 0.2002,0.5937 0.0668,0.1987 0.1335,0.3983 0.2002,0.5987 0.0668,0.2003 0.1335,0.4015 0.2002,0.6033 0.0668,0.2019 0.1335,0.4044 0.2002,0.6076 0.0668,0.2032 0.1335,0.4071 0.2002,0.6116 0.0668,0.2044 0.1335,0.4094 0.2002,0.615 0.0668,0.2055 0.1335,0.4116 0.2002,0.6181 0.0668,0.2065 0.1335,0.4135 0.2002,0.6209 0.0668,0.2073 0.1335,0.4151 0.2002,0.6232 0.0668,0.208 0.1335,0.4164 0.2002,0.6251 0.0668,0.2086 0.1335,0.4176 0.2002,0.6267 0.0668,0.2091 0.1335,0.4183 0.2002,0.6278 0.0668,0.2094 0.1335,0.4189 0.2002,0.6285 0.0668,0.2096 0.1335,0.4193 0.2002,0.6289 0.0668,0.2097 0.1335,0.4193 0.2002,0.6289 0.0668,0.2095 0.1335,0.419 0.2002,0.6284 0.0668,0.2093 0.1335,0.4185 0.2002,0.6275 0.0668,0.209 0.1335,0.4178 0.2002,0.6264 0.0668,0.2085 0.1335,0.4167 0.2002,0.6246 0.0668,0.2079 0.1335,0.4155 0.2002,0.6227 0.0668,0.2071 0.1335,0.4139 0.2002,0.6202 0.0668,0.2063 0.1335,0.4121 0.2002,0.6174 0.0668,0.2053 0.1335,0.41 0.2002,0.6142 0.0668,0.2041 0.1335,0.4077 0.2002,0.6106 0.0668,0.2028 0.1335,0.4051 0.2002,0.6065 0.0668,0.2015 0.1335,0.4023 0.2002,0.6023 0.0668,0.1999 0.1335,0.3991 0.2002,0.5974 0.0668,0.1984 0.1335,0.3958 0.2002,0.5924 0.0668,0.1965 0.1335,0.3922 0.2002,0.5868 0.0668,0.1947 0.1335,0.3884 0.2002,0.581 0.0668,0.1926 0.1335,0.3842 0.2002,0.5747 0.0668,0.1905 0.1335,0.3799 0.2002,0.5681 0.0668,0.1882 0.1335,0.3753 0.2002,0.5612 0.0668,0.1858 0.1335,0.3704 0.2002,0.5538 0.0668,0.1833 0.1335,0.3654 0.2002,0.5461 0.0668,0.1808 0.1335,0.3602 0.2002,0.5382 0.0668,0.178 0.1335,0.3546 0.2002,0.5297 0.0668,0.1752 0.1335,0.3489 0.2002,0.5211 0.0668,0.1722 0.1335,0.3429 0.2002,0.5121 0.0668,0.1691 0.1335,0.3367 0.2002,0.5027 0.0668,0.1659 0.1335,0.3303 0.2002,0.493 0.0668,0.1627 0.1335,0.3237 0.2002,0.483 0.0668,0.1594 0.1335,0.317 0.2002,0.4728 0.0668,0.1559 0.1335,0.3099 0.2002,0.4622 0.0668,0.1523 0.1335,0.3027 0.2002,0.4513 0.0668,0.1486 0.1335,0.2954 0.2002,0.4402 0.0668,0.1448 0.1335,0.2877 0.2002,0.4287 0.0668,0.141 0.1335,0.28 0.2002,0.417 0.0668,0.137 0.1335,0.272 0.2002,0.405 0.0668,0.133 0.1335,0.2639 0.2002,0.3928 0.0668,0.1289 0.1335,0.2557 0.2002,0.3803 0.0668,0.1247 0.1335,0.2472 0.2002,0.3676 0.0668,0.1204 0.1335,0.2386 0.2002,0.3547 0.0668,0.116 0.1335,0.2298 0.2002,0.3414 0.0668,0.1116 0.1335,0.221 0.2002,0.3281 0.0668,0.1071 0.1335,0.2119 0.2002,0.3145 0.0668,0.1025 0.1335,0.2027 0.2002,0.3006 0.0668,0.0979 0.1335,0.1935 0.2002,0.2867 0.0668,0.0932 0.1335,0.184 0.2002,0.2725 0.0668,0.0884 0.1335,0.1745 0.2002,0.2582 0.0668,0.0836 0.1335,0.1648 0.2002,0.2436 0.0668,0.0788 0.1335,0.1551 0.2002,0.229 0.0668,0.0739 0.1335,0.1452 0.2002,0.2142 0.0668,0.0689 0.1335,0.1353 0.2002,0.1992 0.0668,0.0639 0.1335,0.1253 0.2002,0.1842 0.0668,0.0588 0.1335,0.1152 0.2002,0.1689 0.0668,0.0538 0.1335,0.1051 0.2002,0.1537 0.0668,0.0487 0.1335,0.0948 0.2002,0.1383 0.0668,0.0435 0.1335,0.0845 0.2002,0.1228 0.0668,0.0384 0.1335,0.0742 0.2002,0.1073 0.0668,0.0332 0.1335,0.0637 0.2002,0.0916 0.0668,0.028 0.1335,0.0533 0.2002,0.076 0.0668,0.0227 0.1335,0.0428 0.2002,0.0602 0.0668,0.0175 0.1335,0.0323 0.2002,0.0445 0.0668,0.0122 0.1335,0.0217 0.2002,0.0287 0.0668,0.0069 0.1335,0.0112 0.2002,0.0128 0.0668,0.0017 0.1335,7e-4 0.2002,-0.0029 0.0668,-0.0037 0.1335,-0.0099 0.2002,-0.0188 0.0668,-0.0089 0.1335,-0.0205 0.2002,-0.0346 0.0668,-0.0142 0.1335,-0.031 0.2002,-0.0504 0.0668,-0.0194 0.1335,-0.0415 0.2002,-0.0661 0.0668,-0.0247 0.1335,-0.052 0.2002,-0.0819 0.0668,-0.0299 0.1335,-0.0624 0.2002,-0.0975 0.0668,-0.0351 0.1335,-0.0728 0.2002,-0.1131 0.0668,-0.0403 0.1335,-0.0832 0.2002,-0.1286 0.0668,-0.0455 0.1335,-0.0935 0.2002,-0.1441 0.0668,-0.0506 0.1335,-0.1038 0.2002,-0.1594 0.0668,-0.0557 0.1335,-0.114 0.2002,-0.1747 0.0668,-0.0608 0.1335,-0.1241 0.2002,-0.1899 0.0668,-0.0657 0.1335,-0.134 0.2002,-0.2048 0.0668,-0.0708 0.1335,-0.144 0.2002,-0.2198 0.0668,-0.0757 0.1335,-0.1539 0.2002,-0.2345 0.0668,-0.0806 0.1335,-0.1636 0.2002,-0.2491 0.0668,-0.0854 0.1335,-0.1733 0.2002,-0.2635 0.0668,-0.0903 0.1335,-0.1829 0.2002,-0.2779 0.0668,-0.0949 0.1335,-0.1923 0.2002,-0.2919 0.0668,-0.0996 0.1335,-0.2016 0.2002,-0.3059 0.0668,-0.1042 0.1335,-0.2108 0.2002,-0.3196 0.0668,-0.1087 0.1335,-0.2198 0.2002,-0.3331 0.0668,-0.1132 0.1335,-0.2287 0.2002,-0.3464 0.0668,-0.1177 0.1335,-0.2375 0.2002,-0.3595 0.0668,-0.122 0.1335,-0.2462 0.2002,-0.3724 0.0668,-0.1263 0.1335,-0.2546 0.2002,-0.385 0.0668,-0.1305 0.1335,-0.2629 0.2002,-0.3974 0.0668,-0.1346 0.1335,-0.2711 0.2002,-0.4096 0.0668,-0.1385 0.1335,-0.279 0.2002,-0.4214 0.0668,-0.1424 0.1335,-0.2868 0.2002,-0.4331 0.0668,-0.1462 0.1335,-0.2943 0.2002,-0.4443 0.0668,-0.15 0.1335,-0.3018 0.2002,-0.4555 0.0668,-0.1536 0.1335,-0.309 0.2002,-0.4661 0.0668,-0.1572 0.1335,-0.3161 0.2002,-0.4767 0.0668,-0.1606 0.1335,-0.3229 0.2002,-0.4868 0.0668,-0.164 0.1335,-0.3296 0.2002,-0.4967 0.0668,-0.1672 0.1335,-0.336 0.2002,-0.5063 0.0668,-0.1703 0.1335,-0.3421 0.2002,-0.5155 0.0668,-0.1733 0.1335,-0.3481 0.2002,-0.5243 0.0668,-0.1763 0.1335,-0.3539 0.2002,-0.533 0.0668,-0.179 0.1335,-0.3594 0.2002,-0.5412 0.0668,-0.1817 0.1335,-0.3647 0.2002,-0.549 0.0668,-0.1843 0.1335,-0.3699 0.2002,-0.5566 0.0668,-0.1868 0.1335,-0.3747 0.2002,-0.5638 0.0668,-0.1891 0.1335,-0.3794 0.2002,-0.5707 0.0668,-0.1913 0.1335,-0.3837 0.2002,-0.5771 0.0668,-0.1934 0.1335,-0.3878 0.2002,-0.5832 0.0668,-0.1953 0.1335,-0.3917 0.2002,-0.5889 0.0668,-0.1972 0.1335,-0.3954 0.2002,-0.5943 0.0668,-0.199 0.1335,-0.3988 0.2002,-0.5993 0.0668,-0.2006 0.1335,-0.4019 0.2002,-0.6039 0.0668,-0.2021 0.1335,-0.4048 0.2002,-0.6082 0.0668,-0.2033 0.1335,-0.4074 0.2002,-0.6119 0.0668,-0.2046 0.1335,-0.4098 0.2002,-0.6155 0.0668,-0.2057 0.1335,-0.4118 0.2002,-0.6185 0.0668,-0.2066 0.1335,-0.4137 0.2002,-0.6212 0.0668,-0.2074 0.1335,-0.4153 0.2002,-0.6234 0.0668,-0.2082 0.1335,-0.4166 0.2002,-0.6253 0.0668,-0.2088 0.1335,-0.4177 0.2002,-0.6269 0.0668,-0.2091 0.1335,-0.4185 0.2002,-0.6279 0.0668,-0.2094 0.1335,-0.419 0.2002,-0.6286 0.0668,-0.2096 0.1335,-0.4193 0.2003,-0.6289 0.0667,-0.2097 0.1334,-0.4193 0.2002,-0.6289 0.0667,-0.2095 0.1334,-0.419 0.2002,-0.6283 0.0667,-0.2093 0.1334,-0.4185 0.2002,-0.6274 0.0667,-0.209 0.1334,-0.4177 0.2002,-0.6261 0.0667,-0.2085 0.1334,-0.4167 0.2002,-0.6245 0.0667,-0.2078 0.1334,-0.4153 0.2002,-0.6223 0.0667,-0.2071 0.1334,-0.4138 0.2002,-0.6199 0.0667,-0.2062 0.1334,-0.4119 0.2002,-0.617 0.0667,-0.2052 0.1334,-0.4098 0.2002,-0.6138 0.0667,-0.204 0.1334,-0.4074 0.2002,-0.6101 0.0667,-0.2027 0.1334,-0.4048 0.2002,-0.6061 0.0667,-0.2013 0.1334,-0.4019 0.2002,-0.6016 0.0667,-0.1998 0.1334,-0.3988 0.2002,-0.5969 0.0667,-0.1981 0.1334,-0.3953 0.2002,-0.5917 0.0667,-0.1963 0.1334,-0.3917 0.2002,-0.5861 0.0667,-0.1944 0.1334,-0.3878 0.2002,-0.5802 0.0667,-0.1923 0.1334,-0.3837 0.2002,-0.5739 0.0667,-0.1902 0.1334,-0.3793 0.2002,-0.5672 0.0667,-0.188 0.1334,-0.3748 0.2002,-0.5603 0.0667,-0.1855 0.1334,-0.3698 0.2002,-0.5529 0.0667,-0.183 0.1334,-0.3647 0.2002,-0.5451 0.0667,-0.1804 0.1334,-0.3595 0.2002,-0.5371 0.0667,-0.1777 0.1334,-0.3539 0.2002,-0.5287 0.0667,-0.1748 0.1334,-0.3482 0.2002,-0.52 0.0667,-0.1718 0.1334,-0.3422 0.2002,-0.5109 0.0667,-0.1688 0.1334,-0.3359 0.2002,-0.5015 0.0667,-0.1656 0.1334,-0.3295 0.2002,-0.4918 0.0667,-0.1623 0.1334,-0.3229 0.2002,-0.4818 0.0667,-0.1589 0.1334,-0.3161 0.2002,-0.4715 0.0667,-0.1554 0.1334,-0.309 0.2002,-0.4608 0.0667,-0.1518 0.1334,-0.3018 0.2002,-0.45 0.0667,-0.1481 0.1334,-0.2943 0.2002,-0.4387 0.0667,-0.1444 0.1334,-0.2868 0.2002,-0.4273 0.0667,-0.1404 0.1334,-0.279 0.2002,-0.4155 0.0667,-0.1365 0.1334,-0.271 0.2002,-0.4035 0.0667,-0.1325 0.1334,-0.2629 0.2002,-0.3912 0.0667,-0.1284 0.1334,-0.2546 0.2002,-0.3788 0.0667,-0.1241 0.1334,-0.2461 0.2002,-0.366 0.0667,-0.1198 0.1334,-0.2375 0.2002,-0.353 0.0667,-0.1155 0.1334,-0.2287 0.2002,-0.3398 0.0667,-0.111 0.1334,-0.2198 0.2002,-0.3263 0.0667,-0.1066 0.1334,-0.2108 0.2002,-0.3128 0.0667,-0.102 0.1334,-0.2016 0.2002,-0.2989 0.0667,-0.0973 0.1334,-0.1923 0.2002,-0.2849 0.0667,-0.0927 0.1334,-0.1829 0.2002,-0.2708 0.0667,-0.0878 0.1334,-0.1733 0.2002,-0.2563 0.0667,-0.083 0.1334,-0.1637 0.2002,-0.2418 0.0667,-0.0782 0.1334,-0.1539 0.2002,-0.2272 0.0667,-0.0732 0.1334,-0.144 0.2002,-0.2123 0.0667,-0.0683 0.1334,-0.1341 0.2002,-0.1973 0.0667,-0.0633 0.1334,-0.1241 0.2002,-0.1823 0.0667,-0.0582 0.1334,-0.1139 0.2002,-0.1671 0.0667,-0.0531 0.1334,-0.1037 0.2002,-0.1518 0.0667,-0.048 0.1334,-0.0934 0.2002,-0.1363 0.0667,-0.0429 0.1334,-0.0832 0.2002,-0.1209 0.0667,-0.0377 0.1334,-0.0728 0.2002,-0.1053 0.0667,-0.0325 0.1334,-0.0624 0.2002,-0.0897 0.0667,-0.0273 0.1334,-0.052 0.2002,-0.074 0.0667,-0.022 0.1334,-0.0415 0.2002,-0.0583 0.0667,-0.0168 0.1334,-0.0309 0.2002,-0.0425 0.0667,-0.0115 0.1334,-0.0204 0.2002,-0.0266 0.0667,-0.0063 0.1334,-0.0099 0.2002,-0.0109 0.0667,-10e-4 0.1334,6e-4 0.2002,0.0049 0.0667,0.0043 0.1334,0.0112 0.2002,0.0208 0.0667,0.0095 0.1334,0.0217 0.2002,0.0366 0.0667,0.0148 0.1334,0.0322 0.2002,0.0523 0.0667,0.0201 0.1334,0.0428 0.2002,0.0681 0.0667,0.0253 0.1334,0.0533 0.2002,0.0838 0.0667,0.0306 0.1334,0.0637 0.2002,0.0995 0.0667,0.0357 0.1334,0.0741 0.2002,0.115 0.0667,0.041 0.1334,0.0845 0.2002,0.1306 0.0667,0.0461 0.1334,0.0948 0.2002,0.146 0.0667,0.0512 0.1334,0.105 0.2002,0.1613 0.0667,0.0564 0.1334,0.1152 0.2002,0.1766 0.0667,0.0614 0.1334,0.1253 0.2002,0.1917 0.0667,0.0665 0.1334,0.1354 0.2002,0.2068 0.0667,0.0714 0.1334,0.1452 0.2002,0.2216 0.0667,0.0763 0.1334,0.1551 0.2002,0.2363 0.0667,0.0812 0.1334,0.1649 0.2002,0.2509 0.0667,0.0861 0.1334,0.1745 0.2002,0.2654 0.0667,0.0908 0.1334,0.184 0.2002,0.2796 0.0667,0.0955 0.1334,0.1935 0.2002,0.2937 0.0667,0.1002 0.1334,0.2027 0.2002,0.3076 0.0667,0.1048 0.1334,0.2119 0.2002,0.3213 0.0667,0.1093 0.1334,0.2209 0.2002,0.3347 0.0667,0.1139 0.1334,0.2299 0.2002,0.3481 0.0667,0.1182 0.1334,0.2386 0.2002,0.3612 0.0667,0.1225 0.1334,0.2472 0.2002,0.374 0.0667,0.1267 0.1334,0.2556 0.2002,0.3865 0.0667,0.131 0.1334,0.264 0.2002,0.399 0.0667,0.135 0.1334,0.272 0.2002,0.411 0.0667,0.139 0.1334,0.28 0.2002,0.4229 0.0667,0.1429 0.1334,0.2878 0.2002,0.4345 0.0667,0.1467 0.1334,0.2953 0.2002,0.4458 0.0667,0.1504 0.1334,0.3027 0.2002,0.4567 0.0667,0.1541 0.1334,0.31 0.2002,0.4676 0.0667,0.1576 0.1334,0.3169 0.2002,0.4779 0.0667,0.161 0.1334,0.3238 0.2002,0.4881 0.0667,0.1643 0.1334,0.3303 0.2002,0.4979 0.0667,0.1676 0.1334,0.3367 0.2002,0.5074 0.0667,0.1707 0.1334,0.3429 0.2002,0.5166 0.0667,0.1737 0.1334,0.3489 0.2002,0.5255 0.0667,0.1766 0.1334,0.3546 0.2002,0.534 0.0667,0.1794 0.1334,0.3601 0.2002,0.5422 0.0667,0.182 0.1334,0.3654 0.2002,0.55 0.0667,0.1846 0.1334,0.3705 0.2002,0.5575 0.0667,0.1871 0.1334,0.3753 0.2002,0.5647 0.0667,0.1894 0.1334,0.3799 0.2002,0.5715 0.0667,0.1915 0.1334,0.3842 0.2002,0.5778 0.0667,0.1937 0.1334,0.3884 0.2002,0.584 0.0667,0.1956 0.1334,0.3922 0.2002,0.5896 0.0667,0.1975 0.1334,0.3958 0.2002,0.595 0.0667,0.1991 0.1334,0.3991 0.2002,0.5999 0.0667,0.2007 0.1334,0.4022 0.2002,0.6044 0.0667,0.2022 0.1334,0.4051 0.2002,0.6087 0.0667,0.2035 0.1334,0.4077 0.2002,0.6124 0.0667,0.2047 0.1334,0.41 0.2002,0.6158 0.0667,0.2058 0.1334,0.4121 0.2002,0.6189 0.0667,0.2067 0.1334,0.4139 0.2002,0.6215 0.0667,0.2075 0.1334,0.4154 0.2002,0.6237 0.0667,0.2082 0.1334,0.4167 0.2002,0.6255 0.0667,0.2088 0.1334,0.4178 0.2002,0.627 0.0667,0.2092 0.1334,0.4186 0.2002,0.628 0.0667,0.2095 0.1334,0.4191 0.2002,0.6287 0.0667,0.2096 0.1334,0.4193 0.2002,0.629 0.0667,0.2096 0.1334,0.4192 0.2002,0.6287 0.0667,0.2096 0.1334,0.419 0.2002,0.6283 0.0667,0.2092 0.1334,0.4184 0.2002,0.6272 0.0667,0.2089 0.1334,0.4176 0.2002,0.626 0.0667,0.2084 0.1334,0.4165 0.2002,0.6242 0.0667,0.2077 0.1334,0.4151 0.2002,0.6221 0.0667,0.2069 0.1334,0.4135 0.2002,0.6195 0.0667,0.2061 0.1334,0.4116 0.2002,0.6166 0.0667,0.2051 0.1334,0.4095 0.2002,0.6134 0.0667,0.2038 0.1334,0.407 0.2002,0.6096 0.0667,0.2025 0.1334,0.4044 0.2002,0.6055 0.0667,0.2012 0.1334,0.4015 0.2002,0.6011 0.0667,0.1996 0.1334,0.3983 0.2002,0.5962 0.0667,0.1979 0.1334,0.3949 0.2002,0.591 0.0667,0.1961 0.1334,0.3913 0.2002,0.5854 0.0667,0.1942 0.1334,0.3874 0.2002,0.5795 0.0667,0.1921 0.1334,0.3831 0.2002,0.5731 0.0667,0.1899 0.1334,0.3787 0.2002,0.5664 0.0667,0.1876 0.1334,0.3741 0.2002,0.5593 0.0667,0.1852 0.1334,0.3692 0.2002,0.5519 0.0667,0.1828 0.1334,0.3642 0.2002,0.5442 0.0667,0.1801 0.1334,0.3588 0.2002,0.5361 0.0667,0.1773 0.1334,0.3532 0.2002,0.5276 0.0667,0.1745 0.1334,0.3474 0.2002,0.5189 0.0667,0.1714 0.1334,0.3414 0.2002,0.5097 0.0667,0.1684 0.1334,0.3352 0.2002,0.5003 0.0667,0.1652 0.1334,0.3287 0.2002,0.4906 0.0667,0.1619 0.1334,0.3221 0.2002,0.4805 0.0667,0.1585 0.1334,0.3152 0.2002,0.4702 0.0667,0.1549 0.1334,0.3081 0.2002,0.4595 0.0667,0.1513 0.1334,0.3009 0.2002,0.4485 0.0667,0.1477 0.1334,0.2935 0.2002,0.4373 0.0667,0.1439 0.1334,0.2859 0.2002,0.4259 0.0667,0.1399 0.1334,0.278 0.2002,0.414 0.0667,0.136 0.1334,0.27 0.2002,0.402 0.0667,0.1319 0.1334,0.2618 0.2002,0.3897 0.0667,0.1278 0.1334,0.2535 0.2002,0.3771 0.0667,0.1236 0.1334,0.2451 0.2002,0.3644 0.0667,0.1193 0.1334,0.2364 0.2002,0.3514 0.0667,0.1149 0.1334,0.2276 0.2002,0.3381 0.0667,0.1105 0.1334,0.2187 0.2002,0.3247 0.0667,0.106 0.1335,0.2096 0.2002,0.311 0.0667,0.1014 0.1335,0.2005 0.2002,0.2972 0.0667,0.0967 0.1335,0.1911 0.2002,0.2832 0.0667,0.092 0.1335,0.1816 0.2002,0.2689 0.0667,0.0872 0.1335,0.1721 0.2002,0.2545 0.0667,0.0825 0.1335,0.1625 0.2002,0.24 0.0667,0.0776 0.1335,0.1527 0.2002,0.2253 0.0667,0.0727 0.1335,0.1428 0.2002,0.2105 0.0667,0.0676 0.1335,0.1328 0.2002,0.1955 0.0667,0.0626 0.1335,0.1227 0.2002,0.1803 0.0667,0.0576 0.1335,0.1127 0.2002,0.1652 0.0667,0.0525 0.1335,0.1025 0.2002,0.1498 0.0667,0.0474 0.1335,0.0922 0.2002,0.1345 0.0667,0.0422 0.1335,0.0819 0.2002,0.1189 0.0667,0.0371 0.1335,0.0715 0.2002,0.1034 0.0667,0.0318 0.1335,0.0611 0.2002,0.0877 0.0667,0.0266 0.1335,0.0507 0.2002,0.072 0.0667,0.0214 0.1335,0.0402 0.2002,0.0563 0.0667,0.0162 0.1335,0.0297 0.2002,0.0406 0.0667,0.0108 0.1335,0.0191 0.2002,0.0247 0.0667,0.0056 0.1335,0.0085 0.2002,0.0089 0.0667,3e-4 0.1335,-0.002 0.2002,-0.007 0.0667,-0.0049 0.1335,-0.0125 0.2002,-0.0227 0.0667,-0.0102 0.1335,-0.0231 0.2002,-0.0385 0.0667,-0.0155 0.1335,-0.0336 0.2002,-0.0544 0.0667,-0.0207 0.1335,-0.0441 0.2002,-0.07 0.0667,-0.026 0.1335,-0.0546 0.2002,-0.0858 0.0667,-0.0312 0.1335,-0.065 0.2002,-0.1014 0.0667,-0.0364 0.1335,-0.0754 0.2002,-0.117 0.0667,-0.0416 0.1335,-0.0858 0.2002,-0.1325 0.0667,-0.0467 0.1335,-0.0961 0.2002,-0.1479 0.0667,-0.0519 0.1335,-0.1063 0.2002,-0.1633 0.0667,-0.0569 0.1335,-0.1165 0.2002,-0.1785 0.0667,-0.062 0.1335,-0.1265 0.2002,-0.1936 0.0667,-0.067 0.1335,-0.1365 0.2002,-0.2086 0.0667,-0.072 0.1335,-0.1465 0.2002,-0.2234 0.0667,-0.0769 0.1335,-0.1564 0.2002,-0.2382 0.0667,-0.0818 0.1335,-0.1661 0.2002,-0.2527 0.0667,-0.0867 0.1335,-0.1757 0.2002,-0.2671 0.0667,-0.0915 0.1335,-0.1853 0.2002,-0.2814 0.0667,-0.0962 0.1335,-0.1947 0.2002,-0.2955 0.0667,-0.1008 0.1335,-0.2039 0.2002,-0.3093 0.0667,-0.1054 0.1335,-0.2131 0.2002,-0.323 0.0667,-0.1099 0.1335,-0.2221 0.2002,-0.3364 0.0667,-0.1144 0.1335,-0.231 0.2002,-0.3498 0.0667,-0.1187 0.1335,-0.2397 0.2002,-0.3627 0.0667,-0.1231 0.1335,-0.2483 0.2002,-0.3756 0.0667,-0.1273 0.1335,-0.2567 0.2002,-0.3881 0.0667,-0.1315 0.1335,-0.265 0.2002,-0.4005 0.0667,-0.1355 0.1335,-0.2731 0.2002,-0.4125 0.0667,-0.1395 0.1335,-0.281 0.2002,-0.4244 0.0667,-0.1434 0.1335,-0.2887 0.2002,-0.4359 0.0667,-0.1472 0.1335,-0.2963 0.2002,-0.4472 0.0667,-0.1509 0.1335,-0.3036 0.2002,-0.4581 0.0667,-0.1545 0.1335,-0.3108 0.2002,-0.4688 0.0667,-0.1581 0.1335,-0.3178 0.2002,-0.4793 0.0667,-0.1614 0.1335,-0.3246 0.2002,-0.4893 0.0667,-0.1648 0.1335,-0.3312 0.2002,-0.4991 0.0667,-0.168 0.1335,-0.3375 0.2002,-0.5086 0.0667,-0.1711 0.1335,-0.3437 0.2002,-0.5177 0.0667,-0.1741 0.1335,-0.3496 0.2002,-0.5266 0.0667,-0.1769 0.1335,-0.3553 0.2002,-0.535 0.0667,-0.1797 0.1335,-0.3608 0.2002,-0.5432 0.0667,-0.1824 0.1335,-0.3661 0.2002,-0.551 0.0667,-0.1849 0.1335,-0.3711 0.2002,-0.5584 0.0667,-0.1874 0.1335,-0.3759 0.2002,-0.5656 0.0667,-0.1896 0.1335,-0.3804 0.2002,-0.5722 0.0667,-0.1919 0.1335,-0.3848 0.2002,-0.5787 0.0667,-0.1939 0.1335,-0.3888 0.2002,-0.5847 0.0667,-0.1958 0.1335,-0.3926 0.2002,-0.5903 0.0667,-0.1977 0.1335,-0.3962 0.2002,-0.5956 0.0667,-0.1994 0.1335,-0.3996 0.2002,-0.6005 0.0667,-0.2009 0.1335,-0.4026 0.2002,-0.605 0.0667,-0.2024 0.1335,-0.4054 0.2002,-0.6091 0.0667,-0.2037 0.1335,-0.408 0.2002,-0.6129 0.0667,-0.2049 0.1335,-0.4103 0.2002,-0.6162 0.0667,-0.206 0.1335,-0.4124 0.2002,-0.6192 0.0667,-0.2069 0.1335,-0.4142 0.2002,-0.6218 0.0667,-0.2077 0.1335,-0.4157 0.2002,-0.624 0.0667,-0.2083 0.1335,-0.4169 0.2002,-0.6257 0.0667,-0.2089 0.1335,-0.4179 0.2002,-0.6272 0.0667,-0.2092 0.1335,-0.4186 0.2002,-0.6281 0.0667,-0.2095 0.1335,-0.4191 0.2002,-0.6287 0.0667,-0.2097 0.1331,-0.4193 0.2001,-0.629 0.067,-0.2096 0.134,-0.4192 0.2,-0.6287 0.067,-0.2095 0.134,-0.4189 0.201,-0.6281 0.066,-0.2093 0.133,-0.4183 0.2,-0.6272 0.066,-0.2088 0.133,-0.4174 0.2,-0.6257 0.067,-0.2083 0.133,-0.4163 0.2,-0.624 0.067,-0.2076 0.134,-0.4149 0.2,-0.6218 0.067,-0.2068 0.134,-0.4132 0.201,-0.6192 0.066,-0.2059 0.133,-0.4113 0.2,-0.6162 0.066,-0.2049 0.133,-0.4092 0.2,-0.6129 0.067,-0.2037 0.133,-0.4067 0.2,-0.6091 0.067,-0.2024 0.134,-0.4041 0.2,-0.605 0.067,-0.201 0.134,-0.4011 0.201,-0.6005 0.066,-0.1994 0.133,-0.3979 0.2,-0.5956 0.066,-0.1977 0.133,-0.3945 0.2,-0.5903 0.067,-0.1959 0.133,-0.3908 0.2,-0.5847 0.067,-0.1939 0.134,-0.3868 0.2,-0.5787 0.067,-0.1918 0.134,-0.3826 0.201,-0.5722 0.066,-0.1897 0.133,-0.3782 0.2,-0.5656 0.066,-0.1873 0.133,-0.3735 0.2,-0.5584 0.067,-0.1849 0.133,-0.3686 0.2,-0.551 0.067,-0.1824 0.134,-0.3635 0.2,-0.5432 0.067,-0.1797 0.134,-0.3581 0.201,-0.535 0.066,-0.177 0.133,-0.3525 0.2,-0.5266 0.066,-0.174 0.133,-0.3466 0.2,-0.5177 0.067,-0.1711 0.133,-0.3406 0.2,-0.5086 0.067,-0.1679 0.134,-0.3343 0.2,-0.4991 0.067,-0.1648 0.134,-0.3279 0.201,-0.4893 0.066,-0.1615 0.133,-0.3212 0.2,-0.4793 0.066,-0.158 0.133,-0.3143 0.2,-0.4688 0.067,-0.1545 0.133,-0.3072 0.2,-0.4581 0.067,-0.1509 0.134,-0.3 0.2,-0.4472 0.067,-0.1472 0.134,-0.2925 0.201,-0.4359 0.066,-0.1434 0.133,-0.2849 0.2,-0.4244 0.066,-0.1395 0.133,-0.277 0.2,-0.4125 0.067,-0.1355 0.133,-0.269 0.2,-0.4005 0.067,-0.1314 0.134,-0.2608 0.2,-0.3881 0.067,-0.1273 0.134,-0.2525 0.201,-0.3756 0.066,-0.123 0.133,-0.244 0.2,-0.3627 0.066,-0.1188 0.133,-0.2354 0.2,-0.3498 0.067,-0.1143 0.133,-0.2265 0.2,-0.3364 0.067,-0.11 0.134,-0.2176 0.2,-0.323 0.067,-0.1054 0.134,-0.2085 0.201,-0.3093 0.066,-0.1008 0.133,-0.1993 0.2,-0.2955 0.066,-0.0961 0.133,-0.1899 0.2,-0.2814 0.067,-0.0914 0.133,-0.1804 0.2,-0.2671 0.067,-0.0867 0.134,-0.1709 0.2,-0.2527 0.067,-0.0819 0.134,-0.1612 0.201,-0.2382 0.066,-0.0769 0.133,-0.1514 0.2,-0.2234 0.066,-0.0721 0.133,-0.1416 0.2,-0.2086 0.067,-0.0671 0.133,-0.1316 0.2,-0.1936 0.067,-0.0621 0.134,-0.1215 0.2,-0.1785 0.067,-0.057 0.134,-0.1114 0.201,-0.1633 0.066,-0.0518 0.133,-0.1012 0.2,-0.1479 0.066,-0.0467 0.133,-0.0909 0.2,-0.1325 0.067,-0.0416 0.133,-0.0806 0.2,-0.117 0.067,-0.0364 0.134,-0.0702 0.2,-0.1014 0.067,-0.0312 0.134,-0.0598 0.201,-0.0858 0.066,-0.026 0.133,-0.0493 0.2,-0.07 0.066,-0.0208 0.133,-0.0389 0.2,-0.0544 0.067,-0.0154 0.133,-0.0283 0.2,-0.0385 0.067,-0.0102 0.134,-0.0178 0.2,-0.0227 0.067,-0.005 0.134,-0.0073 0.201,-0.007 0.066,4e-4 0.133,0.0033 0.2,0.0089 0.066,0.0056 0.133,0.0139 0.2,0.0247 0.067,0.0109 0.133,0.0244 0.2,0.0406 0.067,0.0161 0.134,0.0349 0.2,0.0563 0.067,0.0213 0.134,0.0454 0.201,0.072 0.066,0.0266 0.133,0.0559 0.2,0.0877 0.066,0.0319 0.133,0.0663 0.2,0.1034 0.067,0.037 0.133,0.0767 0.2,0.1189 0.067,0.0422 0.134,0.0871 0.2,0.1345 0.067,0.0473 0.134,0.0973 0.201,0.1498 0.066,0.0525 0.133,0.1076 0.2,0.1652 0.066,0.0576 0.133,0.1177 0.2,0.1803 0.067,0.0627 0.133,0.1279 0.2,0.1955 0.067,0.0677 0.134,0.1378 0.2,0.2105 0.067,0.0726 0.134,0.1477 0.201,0.2253 0.066,0.0775 0.133,0.1575 0.2,0.24 0.066,0.0824 0.133,0.1673 0.2,0.2545 0.067,0.0873 0.133,0.1769 0.2,0.2689 0.067,0.0921 0.134,0.1865 0.2,0.2832 0.067,0.0967 0.134,0.1958 0.201,0.2972 0.066,0.1014 0.133,0.205 0.2,0.311 0.066,0.106 0.133,0.2142 0.2,0.3247 0.067,0.1105 0.133,0.2232 0.2,0.3381 0.067,0.115 0.134,0.2321 0.2,0.3514 0.067,0.1193 0.134,0.2408 0.201,0.3644 0.066,0.1236 0.133,0.2493 0.2,0.3771 0.066,0.1278 0.133,0.2578 0.2,0.3897 0.067,0.132 0.133,0.266 0.2,0.402 0.067,0.136 0.134,0.2741 0.2,0.414 0.067,0.14 0.134,0.282 0.201,0.4259 0.066,0.1438 0.133,0.2896 0.2,0.4373 0.066,0.1476 0.133,0.2972 0.2,0.4485 0.067,0.1514 0.133,0.3046 0.2,0.4595 0.067,0.155 0.134,0.3117 0.2,0.4702 0.067,0.1584 0.134,0.3186 0.201,0.4805 0.066,0.1619 0.133,0.3254 0.2,0.4906 0.066,0.1651 0.133,0.3319 0.2,0.5003 0.067,0.1683 0.133,0.3383 0.2,0.5097 0.067,0.1715 0.134,0.3444 0.2,0.5189 0.067,0.1744 0.134,0.3503 0.201,0.5276 0.066,0.1773 0.133,0.356 0.2,0.5361 0.066,0.18 0.133,0.3614 0.2,0.5442 0.067,0.1827 0.133,0.3667 0.2,0.5519 0.067,0.1852 0.134,0.3717 0.2,0.5593 0.067,0.1877 0.134,0.3765 0.201,0.5664 0.066,0.19 0.133,0.381 0.2,0.5731 0.066,0.1921 0.133,0.3853 0.2,0.5795 0.067,0.1941 0.133,0.3893 0.2,0.5854 0.067,0.1961 0.134,0.3931 0.2,0.591 0.067,0.1979 0.134,0.3966 0.201,0.5962 0.066,0.1996 0.133,0.3999 0.2,0.6011 0.066,0.2011 0.133,0.403 0.2,0.6055 0.067,0.2026 0.133,0.4058 0.2,0.6096 0.067,0.2039 0.134,0.4083 0.2,0.6134 0.067,0.205 0.134,0.4105 0.201,0.6166 0.066,0.206 0.133,0.4126 0.2,0.6195 0.066,0.207 0.133,0.4144 0.2,0.6221 0.067,0.2077 0.133,0.4158 0.2,0.6242 0.067,0.2084 0.134,0.4171 0.2,0.626 0.067,0.2088 0.134,0.418 0.201,0.6272 0.066,0.2093 0.133,0.4187 0.2,0.6283 0.066,0.2095 0.133,0.4191 0.2,0.6287 0.067,0.2097 0.133,0.4194 0.2,0.629 0.067,0.2096 0.134,0.4192 0.2,0.6287 0.067,0.2094 0.134,0.4188 0.201,0.628 0.066,0.2092 0.133,0.4182 0.2,0.627 0.066,0.2088 0.133,0.4173 0.2,0.6255 0.067,0.2083 0.133,0.4162 0.2,0.6237 0.067,0.2076 0.134,0.4148 0.2,0.6215 0.067,0.2068 0.134,0.4131 0.201,0.6189 0.066,0.2058 0.133,0.4111 0.2,0.6158 0.066,0.2047 0.133,0.4089 0.2,0.6124 0.067,0.2036 0.133,0.4065 0.2,0.6087 0.067,0.2022 0.134,0.4037 0.2,0.6044 0.067,0.2008 0.134,0.4008 0.201,0.5999 0.066,0.1992 0.133,0.3975 0.2,0.595 0.066,0.1974 0.133,0.394 0.2,0.5896 0.067,0.1956 0.133,0.3903 0.2,0.584 0.067,0.1936 0.134,0.3863 0.2,0.5778 0.067,0.1916 0.134,0.3821 0.201,0.5715 0.066,0.1894 0.133,0.3776 0.2,0.5647 0.066,0.187 0.133,0.3729 0.2,0.5575 0.067,0.1846 0.133,0.368 0.2,0.55 0.067,0.1821 0.134,0.3628 0.2,0.5422 0.067,0.1794 0.134,0.3574 0.201,0.534 0.066,0.1766 0.133,0.3518 0.2,0.5255 0.066,0.1737 0.133,0.3459 0.2,0.5166 0.067,0.1707 0.133,0.3398 0.2,0.5074 0.067,0.1676 0.134,0.3335 0.2,0.4979 0.067,0.1644 0.134,0.3271 0.201,0.4881 0.066,0.161 0.133,0.3203 0.2,0.4779 0.066,0.1576 0.133,0.3135 0.2,0.4676 0.067,0.154 0.133,0.3063 0.2,0.4567 0.067,0.1505 0.134,0.2991 0.2,0.4458 0.067,0.1467 0.134,0.2916 0.201,0.4345 0.066,0.1429 0.133,0.2839 0.2,0.4229 0.066,0.139 0.133,0.276 0.2,0.411 0.067,0.135 0.133,0.268 0.2,0.399 0.067,0.1309 0.134,0.2598 0.2,0.3865 0.067,0.1268 0.134,0.2515 0.201,0.374 0.066,0.1226 0.133,0.243 0.2,0.3612 0.066,0.1182 0.133,0.2342 0.2,0.3481 0.067,0.1138 0.133,0.2254 0.2,0.3347 0.067,0.1094 0.134,0.2165 0.2,0.3213 0.067,0.1049 0.134,0.2074 0.201,0.3076 0.066,0.1003 0.133,0.1982 0.2,0.2937 0.066,0.0956 0.133,0.1888 0.2,0.2796 0.067,0.0909 0.133,0.1793 0.2,0.2654 0.067,0.086 0.134,0.1697 0.2,0.2509 0.067,0.0812 0.134,0.16 0.201,0.2363 0.066,0.0764 0.133,0.1502 0.2,0.2216 0.066,0.0714 0.133,0.1403 0.2,0.2068 0.067,0.0664 0.133,0.1303 0.2,0.1917 0.067,0.0614 0.134,0.1202 0.2,0.1766 0.067,0.0563 0.134,0.1101 0.201,0.1613 0.066,0.0512 0.133,0.0999 0.2,0.146 0.066,0.0461 0.133,0.0896 0.2,0.1306 0.067,0.0409 0.133,0.0793 0.2,0.115 0.067,0.0358 0.134,0.0689 0.2,0.0995 0.067,0.0305 0.134,0.0585 0.201,0.0838 0.066,0.0253 0.133,0.048 0.2,0.0681 0.066,0.0201 0.133,0.0375 0.2,0.0523 0.067,0.0149 0.133,0.0271 0.2,0.0366 0.067,0.0096 0.134,0.0165 0.2,0.0208 0.067,0.0043 0.134,0.0059 0.201,0.0049 0.066,-10e-4 0.133,-0.0046 0.2,-0.0109 0.066,-0.0062 0.133,-0.0151 0.2,-0.0266 0.067,-0.0116 0.133,-0.0257 0.2,-0.0425 0.067,-0.0168 0.134,-0.0363 0.2,-0.0583 0.067,-0.022 0.134,-0.0467 0.201,-0.074 0.066,-0.0273 0.133,-0.0572 0.2,-0.0897 0.066,-0.0325 0.133,-0.0676 0.2,-0.1053 0.067,-0.0377 0.133,-0.078 0.2,-0.1209 0.067,-0.0429 0.134,-0.0883 0.2,-0.1363 0.067,-0.0481 0.134,-0.0987 0.201,-0.1518 0.066,-0.0532 0.133,-0.1089 0.2,-0.1671 0.066,-0.0582 0.133,-0.119 0.2,-0.1823 0.067,-0.0632 0.133,-0.129 0.2,-0.1973 0.067,-0.0683 0.134,-0.1391 0.2,-0.2123 0.067,-0.0733 0.134,-0.149 0.201,-0.2272 0.066,-0.0781 0.133,-0.1588 0.2,-0.2418 0.066,-0.083 0.133,-0.1685 0.2,-0.2563 0.067,-0.0879 0.133,-0.1782 0.2,-0.2708 0.067,-0.0926 0.134,-0.1876 0.2,-0.2849 0.067,-0.0973 0.134,-0.1969 0.201,-0.2989 0.066,-0.102 0.133,-0.2062 0.2,-0.3128 0.066,-0.1065 0.133,-0.2153 0.2,-0.3263 0.067,-0.1111 0.133,-0.2244 0.2,-0.3398 0.067,-0.1155 0.134,-0.2332 0.2,-0.353 0.067,-0.1199 0.134,-0.2419 0.201,-0.366 0.066,-0.1242 0.133,-0.2504 0.2,-0.3788 0.066,-0.1283 0.133,-0.2587 0.2,-0.3912 0.067,-0.1325 0.133,-0.267 0.2,-0.4035 0.067,-0.1365 0.134,-0.2751 0.2,-0.4155 0.067,-0.1405 0.134,-0.283 0.201,-0.4273 0.066,-0.1443 0.133,-0.2906 0.2,-0.4387 0.066,-0.1482 0.133,-0.2982 0.2,-0.45 0.067,-0.1518 0.133,-0.3054 0.2,-0.4608 0.067,-0.1554 0.134,-0.3126 0.2,-0.4715 0.067,-0.1589 0.134,-0.3195 0.201,-0.4818 0.066,-0.1623 0.133,-0.3262 0.2,-0.4918 0.066,-0.1656 0.133,-0.3327 0.2,-0.5015 0.067,-0.1687 0.133,-0.3391 0.2,-0.5109 0.067,-0.1718 0.134,-0.3452 0.2,-0.52 0.067,-0.1748 0.134,-0.351 0.201,-0.5287 0.066,-0.1776 0.133,-0.3567 0.2,-0.5371 0.066,-0.1804 0.133,-0.3621 0.2,-0.5451 0.067,-0.1831 0.133,-0.3674 0.2,-0.5529 0.067,-0.1855 0.134,-0.3723 0.2,-0.5603 0.067,-0.1879 0.134,-0.377 0.201,-0.5672 0.066,-0.1902 0.133,-0.3816 0.2,-0.5739 0.066,-0.1924 0.133,-0.3858 0.2,-0.5802 0.067,-0.1944 0.133,-0.3898 0.2,-0.5861 0.067,-0.1964 0.134,-0.3936 0.2,-0.5917 0.067,-0.1981 0.134,-0.3971 0.201,-0.5969 0.066,-0.1997 0.133,-0.4003 0.2,-0.6016 0.066,-0.2013 0.133,-0.4034 0.2,-0.6061 0.067,-0.2027 0.133,-0.4061 0.2,-0.6101 0.067,-0.204 0.134,-0.4086 0.2,-0.6138 0.067,-0.2051 0.134,-0.4108 0.201,-0.617 0.066,-0.2061 0.133,-0.4128 0.2,-0.6199 0.066,-0.207 0.133,-0.4145 0.2,-0.6223 0.067,-0.2078 0.133,-0.416 0.2,-0.6245 0.067,-0.2084 0.134,-0.4171 0.2,-0.6261 0.067,-0.2089 0.134,-0.4181 0.201,-0.6274 0.066,-0.2093 0.133,-0.4188 0.2,-0.6283 0.066,-0.2096 0.133,-0.4192 0.2,-0.6289 0.067,-0.2096 0.133,-0.4193 0.2,-0.6289 0.067,-0.2096 0.134,-0.4192 0.2,-0.6286 0.067,-0.2094 0.134,-0.4188 0.201,-0.6279 0.066,-0.2092 0.133,-0.4181 0.2,-0.6269 0.066,-0.2087 0.133,-0.4171 0.2,-0.6253 0.067,-0.2081 0.133,-0.416 0.2,-0.6234 0.067,-0.2075 0.134,-0.4146 0.2,-0.6212 0.067,-0.2067 0.134,-0.4128 0.201,-0.6185 0.066,-0.2057 0.133,-0.4109 0.2,-0.6155 0.066,-0.2045 0.133,-0.4086 0.2,-0.6119 0.067,-0.2034 0.133,-0.4061 0.2,-0.6082 0.067,-0.202 0.134,-0.4033 0.2,-0.6039 0.067,-0.2005 0.134,-0.4003 0.201,-0.5993 0.066,-0.1989 0.133,-0.3971 0.2,-0.5943 0.066,-0.1972 0.133,-0.3935 0.2,-0.5889 0.067,-0.1954 0.133,-0.3898 0.2,-0.5832 0.067,-0.1934 0.134,-0.3858 0.2,-0.5771 0.067,-0.1914 0.134,-0.3816 0.201,-0.5707 0.066,-0.1891 0.133,-0.377 0.2,-0.5638 0.066,-0.1867 0.133,-0.3723 0.2,-0.5566 0.067,-0.1843 0.133,-0.3673 0.2,-0.549 0.067,-0.1818 0.134,-0.3622 0.2,-0.5412 0.067,-0.1791 0.134,-0.3567 0.201,-0.533 0.066,-0.1762 0.133,-0.351 0.2,-0.5243 0.066,-0.1734 0.133,-0.3452 0.2,-0.5155 0.067,-0.1703 0.133,-0.3391 0.2,-0.5063 0.067,-0.1671 0.134,-0.3327 0.2,-0.4967 0.067,-0.1639 0.134,-0.3262 0.201,-0.4868 0.066,-0.1606 0.133,-0.3195 0.2,-0.4767 0.066,-0.1571 0.133,-0.3125 0.2,-0.4661 0.067,-0.1537 0.133,-0.3055 0.2,-0.4555 0.067,-0.15 0.134,-0.2981 0.2,-0.4443 0.067,-0.1463 0.134,-0.2907 0.201,-0.4331 0.066,-0.1424 0.133,-0.2829 0.2,-0.4214 0.066,-0.1385 0.133,-0.275 0.2,-0.4096 0.067,-0.1345 0.133,-0.2669 0.2,-0.3974 0.067,-0.1304 0.134,-0.2587 0.2,-0.385 0.067,-0.1262 0.134,-0.2504 0.201,-0.3724 0.066,-0.122 0.133,-0.2418 0.2,-0.3595 0.066,-0.1177 0.133,-0.2332 0.2,-0.3464 0.067,-0.1133 0.133,-0.2243 0.2,-0.3331 0.067,-0.1088 0.134,-0.2154 0.2,-0.3196 0.067,-0.1043 0.134,-0.2063 0.201,-0.3059 0.066,-0.0996 0.133,-0.197 0.2,-0.2919 0.066,-0.095 0.133,-0.1876 0.2,-0.2779 0.067,-0.0902 0.133,-0.1781 0.2,-0.2635 0.067,-0.0855 0.134,-0.1685 0.2,-0.2491 0.067,-0.0807 0.134,-0.1588 0.201,-0.2345 0.066,-0.0758 0.133,-0.149 0.2,-0.2198 0.066,-0.0708 0.133,-0.1391 0.2,-0.2048 0.067,-0.0658 0.133,-0.1291 0.2,-0.1899 0.067,-0.0607 0.134,-0.119 0.2,-0.1747 0.067,-0.0557 0.134,-0.1088 0.201,-0.1594 0.066,-0.0506 0.133,-0.0986 0.2,-0.1441 0.066,-0.0454 0.133,-0.0883 0.2,-0.1286 0.067,-0.0403 0.133,-0.078 0.2,-0.1131 0.067,-0.0351 0.134,-0.0676 0.2,-0.0975 0.067,-0.0299 0.134,-0.0572 0.201,-0.0819 0.066,-0.0246 0.133,-0.0467 0.2,-0.0661 0.066,-0.0194 0.133,-0.0362 0.2,-0.0504 0.067,-0.0141 0.133,-0.0257 0.2,-0.0346 0.067,-0.0089 0.134,-0.0151 0.2,-0.0188 0.067,-0.0036 0.134,-0.0046 0.201,-0.0029 0.066,0.0016 0.133,0.0059 0.2,0.0128 0.066,0.0069 0.133,0.0165 0.2,0.0287 0.067,0.0122 0.133,0.027 0.2,0.0445 0.067,0.0174 0.134,0.0375 0.2,0.0602 0.067,0.0227 0.134,0.048 0.201,0.076 0.066,0.0279 0.133,0.0584 0.2,0.0916 0.066,0.0331 0.133,0.0689 0.2,0.1073 0.067,0.0383 0.133,0.0793 0.2,0.1228 0.067,0.0435 0.134,0.0896 0.2,0.1383 0.067,0.0486 0.134,0.0999 0.201,0.1537 0.066,0.0537 0.133,0.1101 0.2,0.1689 0.066,0.0589 0.133,0.1203 0.2,0.1842 0.067,0.0639 0.133,0.1303 0.2,0.1992 0.067,0.0689 0.134,0.1404 0.2,0.2142 0.067,0.0739 0.134,0.1502 0.201,0.229 0.066,0.0788 0.133,0.16 0.2,0.2436 0.066,0.0837 0.133,0.1698 0.2,0.2582 0.067,0.0885 0.133,0.1793 0.2,0.2725 0.067,0.0932 0.134,0.1888 0.2,0.2867 0.067,0.0979 0.134,0.1981 0.201,0.3006 0.066,0.1026 0.133,0.2074 0.2,0.3145 0.067,0.1071 0.133,0.2165 0.2,0.3281 0.067,0.1116 0.133,0.2254 0.2,0.3414 0.067,0.1161 0.134,0.2343 0.2,0.3547 0.067,0.1204 0.134,0.2429 0.201,0.3676 0.066,0.1246 0.133,0.2514 0.2,0.3803 0.067,0.1288 0.133,0.2598 0.2,0.3928 0.067,0.133 0.133,0.268 0.2,0.405 0.067,0.137 0.134,0.276 0.2,0.417 0.067,0.141 0.134,0.2839 0.201,0.4287 0.066,0.1448 0.133,0.2916 0.2,0.4402 0.067,0.1486 0.133,0.299 0.2,0.4513 0.067,0.1523 0.133,0.3063 0.2,0.4622 0.067,0.1558 0.134,0.3134 0.2,0.4728 0.067,0.1593 0.134,0.3203 0.201,0.483 0.066,0.1627 0.133,0.3271 0.2,0.493 0.067,0.166 0.133,0.3336 0.2,0.5027 0.067,0.1692 0.133,0.3399 0.2,0.5121 0.067,0.1722 0.134,0.3459 0.2,0.5211 0.067,0.1751 0.134,0.3517 0.201,0.5297 0.066,0.178 0.133,0.3574 0.2,0.5382 0.067,0.1807 0.133,0.3628 0.2,0.5461 0.067,0.1834 0.133,0.368 0.2,0.5538 0.067,0.1859 0.134,0.373 0.2,0.5612 0.067,0.1882 0.134,0.3776 0.201,0.5681 0.066,0.1905 0.133,0.3821 0.2,0.5747 0.067,0.1926 0.133,0.3863 0.2,0.581 0.067,0.1946 0.133,0.3903 0.2,0.5868 0.067,0.1966 0.134,0.394 0.2,0.5924 0.067,0.1983 0.134,0.3975 0.201,0.5974 0.066,0.2 0.133,0.4008 0.2,0.6023 0.067,0.2014 0.133,0.4037 0.2,0.6065 0.067,0.2029 0.133,0.4065 0.2,0.6106 0.067,0.2042 0.134,0.4089 0.2,0.6142 0.067,0.2053 0.134,0.4111 0.201,0.6174 0.066,0.2063 0.133,0.4131 0.2,0.6202 0.067,0.2072 0.133,0.4148 0.2,0.6227 0.067,0.2079 0.133,0.4161 0.2,0.6246 0.067,0.2086 0.134,0.4174 0.2,0.6264 0.067,0.209 0.134,0.4182 0.201,0.6275 0.066,0.2094 0.133,0.4189 0.2,0.6284 0.067,0.2096 0.133,0.4192 0.2,0.6289 0.067,0.2096 0.133,0.4193 0.2,0.6289 0.067,0.2096 0.134,0.4191 0.2,0.6285 0.067,0.2095 0.134,0.4187 0.201,0.6278 0.066,0.2091 0.133,0.4181 0.2,0.6267 0.067,0.2087 0.133,0.4171 0.2,0.6251 0.067,0.2081 0.133,0.4159 0.2,0.6232 0.067,0.2074 0.134,0.4144 0.2,0.6209 0.067,0.2065 0.134,0.4126 0.201,0.6181 0.066,0.2056 0.133,0.4106 0.2,0.615 0.067,0.2045 0.133,0.4084 0.2,0.6116 0.067,0.2032 0.133,0.4057 0.2,0.6076 0.067,0.2018 0.134,0.403 0.2,0.6033 0.067,0.2004 0.134,0.4 0.201,0.5987 0.066,0.1988 0.133,0.3967 0.2,0.5937 0.067,0.197 0.133,0.3931 0.2,0.5883 0.067,0.1951 0.133,0.3893 0.2,0.5824 0.067,0.1932 0.134,0.3853 0.2,0.5763 0.067,0.1911 0.134,0.381 0.201,0.5698 0.066,0.1888 0.133,0.3765 0.2,0.5629 0.067,0.1865 0.133,0.3717 0.2,0.5557 0.067,0.184 0.133,0.3667 0.2,0.5481 0.067,0.1814 0.134,0.3615 0.2,0.5402 0.067,0.1787 0.134,0.356 0.201,0.5319 0.066,0.1759 0.133,0.3503 0.2,0.5233 0.067,0.1729 0.133,0.3444 0.2,0.5143 0.067,0.1699 0.133,0.3383 0.2,0.5051 0.067,0.1667 0.134,0.3319 0.2,0.4955 0.067,0.1635 0.134,0.3254 0.201,0.4855 0.066,0.1602 0.133,0.3187 0.2,0.4754 0.067,0.1567 0.133,0.3117 0.2,0.4649 0.067,0.1531 0.133,0.3045 0.2,0.454 0.067,0.1496 0.134,0.2972 0.2,0.443 0.067,0.1458 0.134,0.2897 0.201,0.4316 0.066,0.1419 0.133,0.2819 0.2,0.42 0.067,0.138 0.133,0.274 0.2,0.408 0.067,0.134 0.133,0.266 0.2,0.3959 0.067,0.1299 0.134,0.2577 0.2,0.3834 0.067,0.1258 0.134,0.2494 0.201,0.3708 0.066,0.1215 0.133,0.2408 0.2,0.3579 0.067,0.1172 0.133,0.2321 0.2,0.3448 0.067,0.1127 0.133,0.2232 0.2,0.3314 0.067,0.1083 0.134,0.2142 0.2,0.3179 0.067,0.1037 0.134,0.2051 0.201,0.3042 0.066,0.099 0.133,0.1958 0.2,0.2901 0.067,0.0944 0.133,0.1865 0.2,0.2761 0.067,0.0897 0.133,0.1769 0.2,0.2618 0.067,0.0848 0.134,0.1673 0.2,0.2473 0.067,0.08 0.134,0.1575 0.201,0.2326 0.066,0.0751 0.133,0.1478 0.2,0.2179 0.067,0.0702 0.133,0.1378 0.2,0.203 0.067,0.0652 0.133,0.1278 0.2,0.1879 0.067,0.0602 0.134,0.1178 0.2,0.1728 0.067,0.0551 0.134,0.1076 0.201,0.1575 0.066,0.05 0.133,0.0974 0.2,0.1422 0.067,0.0448 0.133,0.087 0.2,0.1267 0.067,0.0396 0.133,0.0767 0.2,0.1112 0.067,0.0344 0.134,0.0663 0.2,0.0955 0.067,0.0293 0.134,0.0559 0.201,0.0799 0.066,0.024 0.133,0.0454 0.2,0.0642 0.067,0.0187 0.133,0.0349 0.2,0.0484 0.067,0.0135 0.133,0.0243 0.2,0.0326 0.067,0.0082 0.134,0.0138 0.2,0.0168 0.067,0.003 0.134,0.0033 0.201,10e-4 0.066,-0.0023 0.133,-0.0073 0.2,-0.0148 0.067,-0.0076 0.133,-0.0178 0.2,-0.0307 0.067,-0.0128 0.133,-0.0283 0.2,-0.0464 0.067,-0.0181 0.134,-0.0389 0.2,-0.0622 0.067,-0.0234 0.134,-0.0494 0.201,-0.078 0.066,-0.0285 0.133,-0.0597 0.2,-0.0935 0.067,-0.0339 0.133,-0.0703 0.2,-0.1093 0.067,-0.039 0.133,-0.0806 0.2,-0.1247 0.067,-0.0442 0.134,-0.0909 0.2,-0.1402 0.067,-0.0494 0.134,-0.1012 0.201,-0.1556 0.066,-0.0545 0.133,-0.1114 0.2,-0.1709 0.067,-0.0595 0.133,-0.1216 0.2,-0.1861 0.067,-0.0645 0.133,-0.1316 0.2,-0.2011 0.067,-0.0695 0.134,-0.1416 0.2,-0.216 0.067,-0.0745 0.134,-0.1515 0.201,-0.2309 0.066,-0.0793 0.133,-0.1612 0.2,-0.2454 0.067,-0.0843 0.133,-0.1709 0.2,-0.26 0.067,-0.089 0.133,-0.1805 0.2,-0.2743 0.067,-0.0938 0.134,-0.1899 0.2,-0.2884 0.067,-0.0985 0.134,-0.1993 0.201,-0.3024 0.066,-0.1031 0.133,-0.2085 0.2,-0.3162 0.067,-0.1076 0.133,-0.2176 0.2,-0.3297 0.067,-0.1122 0.133,-0.2266 0.2,-0.3432 0.067,-0.1165 0.134,-0.2353 0.2,-0.3562 0.067,-0.1209 0.134,-0.244 0.201,-0.3692 0.066,-0.1252 0.133,-0.2525 0.2,-0.3819 0.067,-0.1294 0.133,-0.2609 0.2,-0.3943 0.067,-0.1335 0.133,-0.2691 0.2,-0.4066 0.067,-0.1375 0.134,-0.277 0.2,-0.4185 0.067,-0.1414 0.134,-0.2848 0.201,-0.4301 0.066,-0.1453 0.133,-0.2925 0.2,-0.4416 0.067,-0.149 0.133,-0.3 0.2,-0.4527 0.067,-0.1527 0.133,-0.3072 0.2,-0.4635 0.067,-0.1563 0.134,-0.3143 0.2,-0.4741 0.067,-0.1597 0.134,-0.3212 0.201,-0.4843 0.066,-0.1631 0.133,-0.3279 0.2,-0.4943 0.067,-0.1663 0.133,-0.3343 0.2,-0.5039 0.067,-0.1695 0.133,-0.3406 0.2,-0.5131 0.067,-0.1726 0.134,-0.3467 0.2,-0.5222 0.067,-0.1755 0.134,-0.3525 0.201,-0.5309 0.066,-0.1783 0.133,-0.358 0.2,-0.5391 0.067,-0.1811 0.133,-0.3635 0.2,-0.5471 0.067,-0.1837 0.133,-0.3686 0.2,-0.5548 0.067,-0.1861 0.134,-0.3735 0.2,-0.562 0.067,-0.1885 0.134,-0.3782 0.201,-0.569 0.066,-0.1907 0.133,-0.3826 0.2,-0.5755 0.067,-0.1929 0.133,-0.3868 0.2,-0.5817 0.067,-0.1949 0.133,-0.3908 0.2,-0.5876 0.067,-0.1967 0.134,-0.3944 0.2,-0.593 0.067,-0.1985 0.134,-0.3979 0.201,-0.5981 0.066,-0.2001 0.133,-0.4011 0.2,-0.6027 0.067,-0.2017 0.133,-0.4041 0.2,-0.6072 0.067,-0.203 0.133,-0.4067 0.2,-0.611 0.067,-0.2043 0.134,-0.4092 0.2,-0.6146 0.067,-0.2054 0.134,-0.4114 0.201,-0.6178 0.066,-0.2064 0.133,-0.4133 0.2,-0.6205 0.067,-0.2073 0.133,-0.415 0.2,-0.6229 0.067,-0.208 0.133,-0.4164 0.2,-0.625 0.067,-0.2085 0.134,-0.4174 0.2,-0.6264 0.067,-0.2091 0.134,-0.4184 0.201,-0.6277 0.066,-0.2094 0.133,-0.4189 0.2,-0.6285 0.067,-0.2096 0.133,-0.4193 0.2,-0.6289"
       title="sin(x)"
       id="path3" />
  </g>
</svg>
